<svg xmlns="http://www.w3.org/2000/svg" width="40" height="50" viewBox="0 0 40 50">
    <g fill="#FFF" fill-rule="evenodd">
        <path d="M38.029 3.82a.765.765 0 0 1-.184-.46 36.06 36.06 0 0 0-.165-2.211.748.748 0 0 1 .663-.831.765.765 0 0 1 .84.67c.003.036.1.871.172 2.315.02.416-.3.768-.718.785a.765.765 0 0 1-.608-.267M37.778 13.217a.763.763 0 0 1-.182-.573c.154-1.52.252-3.08.295-4.64a.746.746 0 0 1 .776-.726.767.767 0 0 1 .736.785 65.166 65.166 0 0 1-.301 4.748.748.748 0 0 1-.829.668.764.764 0 0 1-.495-.262m-1.7 9.229a.758.758 0 0 1-.157-.7c.401-1.444.747-2.96 1.03-4.509a.747.747 0 0 1 .88-.598c.41.078.682.475.608.886a52.666 52.666 0 0 1-1.061 4.64.749.749 0 0 1-.932.517.76.76 0 0 1-.367-.236m-3.48 8.683a.757.757 0 0 1-.091-.86 37.057 37.057 0 0 0 1.949-4.152.75.75 0 0 1 .981-.416c.39.16.578.6.425.987a38.265 38.265 0 0 1-2.029 4.323.752.752 0 0 1-1.234.118m-5.642 7.423a.754.754 0 0 1 .045-1.037 28.493 28.493 0 0 0 3.024-3.407.756.756 0 0 1 1.06-.138.76.76 0 0 1 .149 1.06 29.792 29.792 0 0 1-3.182 3.582.755.755 0 0 1-1.068-.03l-.028-.03m-7.713 5.231a.697.697 0 0 1-.111-.174.747.747 0 0 1 .36-1.001 28.164 28.164 0 0 0 3.971-2.236.758.758 0 0 1 1.051.205.753.753 0 0 1-.193 1.049 29.589 29.589 0 0 1-4.183 2.356.761.761 0 0 1-.895-.199m-8.969 2.646a.79.79 0 0 1-.173-.371.75.75 0 0 1 .62-.866 35.694 35.694 0 0 0 4.487-.992c.399-.117.822.116.94.515a.747.747 0 0 1-.504.937 37.435 37.435 0 0 1-4.672 1.035.768.768 0 0 1-.698-.258M3.329 46.957a.761.761 0 0 1-.186-.485.747.747 0 0 1 .746-.76c.752-.002 1.504-.02 2.233-.056a.766.766 0 0 1 .8.719.746.746 0 0 1-.71.791c-.754.038-1.528.056-2.302.059a.761.761 0 0 1-.581-.268"/>
        <path d="M8.647 49.857l-.67-7.7-7.2 4.602z"/>
    </g>
</svg>
