<svg xmlns="http://www.w3.org/2000/svg" width="40" height="51" viewBox="0 0 40 51">
    <g fill="#FFF" fill-rule="evenodd">
        <path d="M38.029 46.748a.765.765 0 0 0-.184.46 36.06 36.06 0 0 1-.165 2.212.748.748 0 0 0 .663.831.765.765 0 0 0 .84-.67c.003-.036.1-.872.172-2.316a.748.748 0 0 0-.718-.784.765.765 0 0 0-.608.267M37.778 37.351a.763.763 0 0 0-.182.573c.154 1.52.252 3.081.295 4.64a.746.746 0 0 0 .776.726.767.767 0 0 0 .736-.785 65.166 65.166 0 0 0-.301-4.748.748.748 0 0 0-.829-.668.764.764 0 0 0-.495.262m-1.7-9.228a.758.758 0 0 0-.157.7c.401 1.443.747 2.96 1.03 4.508.075.41.469.679.88.599a.766.766 0 0 0 .608-.886 52.666 52.666 0 0 0-1.061-4.641.749.749 0 0 0-.932-.516.76.76 0 0 0-.367.236m-3.48-8.684a.757.757 0 0 0-.091.86 37.057 37.057 0 0 1 1.949 4.153.75.75 0 0 0 .981.415c.39-.159.578-.6.425-.986a38.265 38.265 0 0 0-2.029-4.324.752.752 0 0 0-1.234-.118m-5.642-7.422a.754.754 0 0 0 .045 1.037 28.493 28.493 0 0 1 3.024 3.406.756.756 0 0 0 1.06.139.76.76 0 0 0 .149-1.06 29.792 29.792 0 0 0-3.182-3.583.755.755 0 0 0-1.068.03l-.028.03m-7.713-5.23a.697.697 0 0 0-.111.174.747.747 0 0 0 .36 1 28.164 28.164 0 0 1 3.971 2.237.758.758 0 0 0 1.051-.205.753.753 0 0 0-.193-1.05 29.589 29.589 0 0 0-4.183-2.355.761.761 0 0 0-.895.199M10.276 4.14a.79.79 0 0 0-.173.37.75.75 0 0 0 .62.866c1.552.242 3.06.577 4.487.993.399.116.822-.116.94-.515a.747.747 0 0 0-.504-.937 37.435 37.435 0 0 0-4.672-1.035.768.768 0 0 0-.698.258M3.329 3.611a.761.761 0 0 0-.186.486.747.747 0 0 0 .746.76c.752.002 1.504.02 2.233.056a.766.766 0 0 0 .8-.72.746.746 0 0 0-.71-.79 49.775 49.775 0 0 0-2.302-.059.761.761 0 0 0-.581.267"/>
        <path d="M8.647.711l-.67 7.7-7.2-4.601z"/>
    </g>
</svg>
