<svg xmlns="http://www.w3.org/2000/svg" width="43" height="48" viewBox="0 0 43 48">
    <g fill="#D9D9D9" fill-rule="evenodd">
        <path d="M41.233 44.117a.765.765 0 0 0-.142.474 36.06 36.06 0 0 1 .028 2.218.748.748 0 0 0 .733.77.765.765 0 0 0 .778-.741c0-.036.025-.877-.03-2.321a.748.748 0 0 0-.784-.72.765.765 0 0 0-.583.32M40.165 34.778a.763.763 0 0 0-.131.586c.286 1.5.52 3.048.698 4.596a.746.746 0 0 0 .836.657.767.767 0 0 0 .665-.847 65.166 65.166 0 0 0-.714-4.703.748.748 0 0 0-.884-.594.764.764 0 0 0-.47.305m-2.497-9.045a.758.758 0 0 0-.097.71 51.136 51.136 0 0 1 1.42 4.402c.11.402.526.635.928.52a.766.766 0 0 0 .529-.936 52.666 52.666 0 0 0-1.462-4.53.749.749 0 0 0-.973-.434.76.76 0 0 0-.345.268m-4.223-8.348a.757.757 0 0 0-.016.865 37.057 37.057 0 0 1 2.303 3.967.75.75 0 0 0 1.014.328.764.764 0 0 0 .337-1.02 38.265 38.265 0 0 0-2.398-4.13.752.752 0 0 0-1.24-.01m-6.267-6.903a.754.754 0 0 0 .136 1.03 28.493 28.493 0 0 1 3.309 3.13.756.756 0 0 0 1.067.045.76.76 0 0 0 .057-1.068 29.792 29.792 0 0 0-3.482-3.292.755.755 0 0 0-1.062.123c-.01.01-.016.021-.025.032m-8.14-4.538a.697.697 0 0 0-.095.183.747.747 0 0 0 .445.966 28.164 28.164 0 0 1 4.152 1.88.758.758 0 0 0 1.029-.295.753.753 0 0 0-.284-1.028 29.589 29.589 0 0 0-4.373-1.982.761.761 0 0 0-.874.276M9.873 4.089a.79.79 0 0 0-.14.385.75.75 0 0 0 .694.808c1.566.106 3.098.308 4.555.598a.764.764 0 0 0 .893-.595.747.747 0 0 0-.585-.89 37.435 37.435 0 0 0-4.745-.623.768.768 0 0 0-.672.317M2.906 4.168a.761.761 0 0 0-.143.5.747.747 0 0 0 .81.692c.75-.063 1.5-.11 2.23-.139a.766.766 0 0 0 .733-.785.746.746 0 0 0-.775-.727c-.755.028-1.528.077-2.3.143a.761.761 0 0 0-.555.316"/>
        <path d="M7.951.816l.005 7.73L.38 4.588z"/>
    </g>
</svg>
