<svg xmlns="http://www.w3.org/2000/svg" width="240" height="126" viewBox="0 0 240 126">
    <g fill="none" fill-rule="evenodd">
        <path fill="#005EE0" d="M133.37 57.452l-7.525 16.597 1.59 5.596-.545 7.137 7.386 38.929-42.357.023 1.22-41.719-9.767-2.254-3.572-5.046.389-7.312-3.396-11.501-2.622-14.948 49.802 8.592z"/>
        <path fill="#FFF" d="M106.783 119.872l-9.862-.462 4.579-1.768zM119.34 89.867l4.416.99 3.296 20.14-19.269 2.741-1.398-26.693-4.875 8.549 1.704 7.185-3.368 5.23-1.627-2.588-.326-18.933 1.266 8.411 4.559-13.091 7.513-.394-4.957 3.515 7.742-1.053-4.177 4.164 6.123-.32 1.216 23.207 3.13-2.617z"/>
        <path fill="#005EE0" d="M.275 104.862L86.21 71.46l47.731-13.662 60.588-31.674 19.454 3.43L239.455.2l-40.96 3.44-5.785 15.232-60.535 22.99-50.167 19.034-67.21 29.188 29.305-10.68z"/>
        <path fill="#FFF" d="M201.758 7.207l-4.016 9.706 17.263-6.007-82.733 37.883.001 2.998 76.678-32.898-8.906 5.324 12.13-.355L226.244 8.53l-20.526 8.968 19.159-11.485zM44.694 79.509l20.409-8.61-49.532 26.41z"/>
        <g>
            <path fill="#005EE0" d="M131.452 55.668l-45.223 8.854-8.175-6.828-4.016-14.996 10.655-4.185 6.45-8.767 11.522 2.25 6.944-5.826 8.492 5.819 6.72-1.751 6.66 6.252-.019 12.427z"/>
            <path fill="#FFF" d="M88.089 66.568l4.64-.236 5.853-1.857 4.189.947 3.034 5.256-11.43 5.741zM125.48 33.291l2.244 2.674-1.483 17.073-5.997.905-1.913-16.645-1.978-.23-.745 1.458-3.931-4.685.486 8.632 4.31 6.976-2.768 3.11-4.667-.573-2.135-9.373-5.792-6.903 5.077-.358 5.12-4.297 4.918 3.734 3.714.102zM93.915 33.783l3.97 1.604 4.059 4.836-.269 1.244 4.607 10.381-2.173 3.371-3.41 1.314-8.213-13.116-5.396-.851 10.291 15.592-4.606 3.865-8.041-6.134-4.97-7.176.754-4.625 4.483-.915 4.272-3.585 2.656-5.075z"/>
        </g>
        <path fill="#FFF" d="M117.164 56.464l-9.27 3.638-3.038-.796zM81.804 68.4L65.08 76.164l17.317-9.823z"/>
    </g>
</svg>
