<svg xmlns="http://www.w3.org/2000/svg" width="18" height="18" viewBox="0 0 18 18">
    <g fill="#0092fa" fill-rule="nonzero">
        <path d="M6.294 17.557c.186.067.38.104.569.155.193.048.376.104.584.126l.487.07.242.033.22.011.442.018.111.004.056.004H9.091l.238-.011c.316-.022.632-.019.944-.081.313-.052.625-.089.93-.181a8.994 8.994 0 0 0 3.362-1.649 8.783 8.783 0 0 0 2.376-2.855l.201-.42c.064-.14.138-.277.186-.428l.156-.44.079-.217c.022-.073.037-.15.059-.225l.112-.45c.018-.077.04-.147.052-.228l.033-.236c.041-.314.1-.639.1-.923a8.444 8.444 0 0 0-.275-3.316 8.57 8.57 0 0 0-1.573-3.01 8.885 8.885 0 0 0-2.64-2.205l-.785-.38C12.375.62 12.099.52 11.828.42c-.28-.08-.562-.147-.844-.22-.29-.06-.6-.097-.897-.141L9.976.044l-.1-.007-.201-.011-.402-.019-.1-.003L9.123 0h-.093l-.22.011-.446.015-.219.01c-.07.008-.145.023-.216.03L7.5.136c-.29.034-.57.122-.852.192a9.204 9.204 0 0 0-5.419 4.105c-.074.126-.156.244-.219.373l-.19.387c-.059.13-.13.259-.185.391L.48 5.99c-.048.137-.104.27-.149.406l-.111.417-.112.42-.074.447c-.093.45.033 1.021.108 1.217.167.376.33-.092.502-.804a10.244 10.244 0 0 1 1.684-3.416c.093-.136.216-.254.32-.384l.164-.191.082-.096.089-.089c.119-.118.242-.236.36-.358l.09-.088.1-.081.198-.163c.252-.228.543-.413.825-.612.138-.103.298-.173.443-.262.148-.085.294-.18.453-.243.74-.38 1.551-.605 2.37-.723.204-.022.409-.067.617-.063l.308-.01.157-.005.078-.003h.063l.647.044.167.011c.056.004.1.015.15.022l.293.052.294.048c.097.018.197.051.297.077l.298.081c.1.026.197.052.294.093l.572.217c.186.089.369.181.55.273.722.387 1.38.882 1.95 1.46a7.846 7.846 0 0 1 1.39 1.985l.13.273.068.137.052.144.208.568.149.586c.01.048.026.096.037.148l.022.15.045.3.048.298.015.303.015.302.007.152v.047l-.003.082-.03.66c-.022.203-.06.383-.082.579a8.179 8.179 0 0 1-.766 2.294 8.316 8.316 0 0 1-1.51 1.881c-1.867 1.756-4.634 2.457-7.107 1.837l-.461-.118-.45-.162-.223-.081c-.075-.03-.145-.067-.216-.1l-.431-.203c-.555-.31-1.098-.649-1.566-1.08-.25-.2-.461-.44-.68-.668-.116-.11-.202-.247-.306-.369-.096-.129-.204-.243-.29-.38-.167-.27-.36-.527-.494-.819-.071-.144-.153-.28-.22-.428l-.178-.438c-.547-1.35-.618-2.612-.982-2.501-.153.051-.272.361-.342.881-.008.258-.011.568.022.919.03.173.063.357.1.55.023.095.038.195.067.294.034.096.067.196.1.3.228.737.6 1.42 1.009 2.076.23.313.442.638.714.922l.193.218c.063.073.13.147.2.21l.429.398c.595.502 1.242.963 1.96 1.287.35.181.725.303 1.093.44z"/>
        <path d="M5.86 10.823c-.124.212-.08.53.292.876.343.312.702.435.91.306.377-.24.765-.474 1.069-.792.27-.278.517-.585.759-.886.556.808 1.383 1.366 1.996 2.119.033.044.236-.028.354-.106a.91.91 0 0 0 .393-.569c.158-.658.029-1.143-.236-1.5-.303-.407-.59-.826-.905-1.221.742-.547 1.282-1.305 1.996-1.88.045-.033-.028-.234-.107-.351a.918.918 0 0 0-.573-.39c-.664-.157-1.153-.028-1.513.234-.41.3-.832.585-1.231.898l-.006-.006c-.528-.653-1.102-1.26-1.855-1.684-.214-.123-.534-.078-.883.29-.315.34-.438.697-.309.903.242.374.478.759.798 1.06.282.267.585.507.894.753-.05.033-.1.072-.151.111-.653.519-1.265 1.088-1.693 1.835z"/>
    </g>
</svg>
