<svg xmlns="http://www.w3.org/2000/svg" width="62" height="78" viewBox="0 0 62 78">
    <path fill="#FFF" fill-rule="nonzero" d="M59.65 71.556c-.054-.564-.658-1.319-1.22-1.262-1.033.487-1.831.738-2.394.753-.58.016-1.317-.442-2.208-1.373.03-.899-.812-1.481-1.361-2.272-2.075-1.867-3.03-2.786-2.865-2.757.555.098 1.595-.433 1.694-.992.098-.559-.022-1.51-.577-1.607-2.548-.45-3.98-1.649-5.096-3.655-.664-1.194-1.718-2.817-1.448-4.344l.743-3.375c.098-.559-.188-2.038-.743-2.135-1.68.246-2.96.246-3.842 0-.748-.21-2.012-.21-3.793 0-1.24-.22-1.669-1.52-1.448-2.769.22-1.25 2-1.44 3.242-1.221l4.358 1.221c1.284.226 2.874-.587 4.193 0 1.274.567 2.28 2.526 3.279 3.296 1.267.976 2.798 1.91 3.664 2.989 1.425 1.777 1.843 3.854 2.208 6.477l-.566 1.934c.078.562 1.766.08 2.323 0 .559-.08 1.313-.69 1.235-1.251l.306-2.522c-.242-1.743-.443-.703-1.144-2.265l3.52.748c.565-.003.002-1.719 0-2.286 0-.568-.411-1.546-.975-1.544l-4.332.019c-1.137-1.853-2.17-2.515-3.936-3.877-1.065-.82-.983-2.149-2.303-2.94-1.521-.91-4.467-1.243-5.99-1.511-1.744.144-3.024.144-3.841 0-.615-.108-1.482-.487-2.6-1.136a4.319 4.319 0 0 0-3.95 1.363c-1.037-.909-1.893-2.388-2.569-4.439-1.19-3.613-3.648-5.637-4.54-6.85-1.723-2.34-3.184-2.561-4.041-3.827-2.194-3.238-3.443-6.517-4.459-7.965-.675-.963-2.22-1.665-2.728-2.407-2.055-3-3.488-6.581-4.99-8.742C8.743 6.568 6.651 3.78 4.18.668A1.015 1.015 0 0 0 3.146.251c-.398.08-.71.389-.799.787C1.861 3.237.961 5.443.88 7.58c-.065 1.734.649 3.408.646 5.122-.006 3.562-.152 7.098.821 10.686 1.282 4.725 3.762 9.986 6.606 14.078 1.665 1.439 2.741 2.627 3.228 3.567 1.26 2.43 3.257 5.866 5.993 10.31.162.232 1.608.664 1.866.709.257.045.906-1.218 1.137-1.38l2.753-.998c1.185.94 1.962 1.676 2.331 2.207.369.53.604 1.252.706 2.165l-.57.08c-1 .143-1.858 1.752-2.467 2.564-.609.813-.727 1.515-.588 2.522.232 1.672.642 1.645 2.211 1.922.136.024.982.55 1.12.558-.22.58.203 1.303.294 1.96.231 1.673 1.662 2.188 3.232 2.465.135.023-.379.708-.24.717-.098.258.28.294.24.567-.052.354-.5.949-.45 1.313.139 1.006.66 1.108 1.465 1.719.484.366.434-.102 1.014 0 .138.024 1.414 1.114 1.555 1.122-.22.58-.793 2.386-.702 3.043.14 1.006.614 1.155 1.42 1.766.484.367.739-.115 1.318-.013.387.068 1.083.796 1.483.74l4.656-.74c.65.82 1.726 1.55 3.121 1.55 1.394 0 2.298-.875 3.236-1.537l2.404-.013c.495-.35 1.45-2.512 1.748-3h6.867c.561-.057.372-1.231.317-1.796zM41.54 54.425c-.993-.21-1.59-.46-1.788-.745-.33-.475-.528-1.37-.592-2.681l2.863.505-.383 2.176c-.045.249-.075.497-.1.745zm-20.93-6.777c-1.062-1.032-1.765-1.869-2.109-2.512-1.346-2.514-2.03-5.108-3.008-6.537-.624-.913-1.884-2.232-3.778-3.957-2.068-3.422-4.39-6.447-5.502-9.32-.915-2.368-.628-4.667-.834-7.139-.26-3.133-.852-6.54-.636-10.7 2.832 3.902 4.74 6.687 5.722 8.357 1.495 2.54 3.493 4.874 4.388 6.694.56 1.14.655 2.037 1.2 2.788.766 1.054 1.61.852 2.448 1.705 2.493 2.539 4.518 5.494 5.999 7.615 1.113 1.593 2.489 3.938 4.127 7.034l-8.018 5.972zm17.035 26.649a1.443 1.443 0 0 1-1.63-1.236 1.455 1.455 0 0 1 1.232-1.645l4.752-.872c.79-.112 1.122.693 1.232 1.487a1.455 1.455 0 0 1-1.232 1.645c-.764.78-1.373 1.203-1.829 1.268-.512.073-1.353-.142-2.525-.647zm-3.518-5.063a1.443 1.443 0 0 1-1.63-1.236 1.455 1.455 0 0 1 .277-1.079c.233-.31-.382-1.132 0-1.187h5.307c.79-.113 1.521.442 1.631 1.236.054.385-.045.768-.278 1.078-.233.31-.97 1.133-1.353 1.188h-3.954zm-3.132-4.477c-.382.055-1.149-.63-1.457-.864a1.443 1.443 0 0 1-.56-.958 1.455 1.455 0 0 1 1.232-1.645l4.235-1.422c.79-.112 1.639 1.243 1.749 2.037a1.455 1.455 0 0 1-1.232 1.645l-3.967 1.207zm-2.907-4.675c-.382.054-.905-.867-1.213-1.1a1.443 1.443 0 0 1-.56-.96 1.455 1.455 0 0 1 .278-1.078c.233-.31-.1-1.132.282-1.187l4.664-.816c.79-.113 1.604.022 1.714.816.053.385.232 2.004 0 2.314-.233.311-.572.512-.954.567l-4.21 1.444zm21.178 12.576l-.953 2.204c-.491.347-3.442.222-3.276 0a3.806 3.806 0 0 0 .728-2.82 3.786 3.786 0 0 0-3.496-3.266c.224-.592.09-2.209 0-2.853-.251-1.817-1.537-2.178-3.289-2.29.22-.579-1.163-1.71-1.254-2.365-.14-1.007.806-1.409 0-2.02a3.73 3.73 0 0 0-2.033-.757c.22-.58.673-2.17.582-2.827-.14-1.007-1.03-.947-1.836-1.558a3.73 3.73 0 0 0-2.801-.726h-2.105c-.408-.972-.795-1.702-1.16-2.189-.365-.487-.964-1.556-1.798-3.208l4.048-3.461 1.104 1.533c-.006.031.923.87.917.902-.417 2.365.218 3.82 2.568 4.234l.097.017c2.516 2.464 4.195 4.266 5.036 5.407.9 1.222 1.011 2.426 2.134 4.084.806 1.19 3.173 2.687 5.015 5.224l2.832 3.903c.708 1.02-.045 2.116-1.06 2.832z"/>
</svg>
