<svg xmlns="http://www.w3.org/2000/svg" width="76" height="80" viewBox="0 0 76 80">
    <path fill="#FFF" fill-rule="nonzero" d="M18.147 7.692l.66 1.277c.631 1.22 1.96 1.618 2.297 2.784.781 2.706-.534 4.87-1.344 7.236-.643 1.878-.073 3.577-2.285 5.605.527.088 1.056.164 1.589.224.705.08 1.36-.333 2.066-.3.926.044 1.903.518 2.829.482-.634-1.526-.653-3.613-.283-6.092.312-2.083.515-4.088 1.968-5.931.995-1.264 1.681-2.413 3.203-3.55l2.398-1.315.575 2.567c.62 1.247 1.923 1.672 2.242 2.858.725 2.702-.334 4.845-1.175 7.185-.333.927-.277 2.168-.758 2.892.763-.232 1-.691 1.746-.979.49-.188 1.494-.19 1.975-.403.18-.651.998-1.474 1.444-2.334.652-1.255 1.126-2.617 2.75-3.87 2.836-2.186 5.636-2.998 10.154-2.346l3.04-.063-.708 2.74c-.686 2.02-1.991 2.446-3.168 4.023-1.401 1.878-2.705 3.996-4.438 4.86-3.566 1.774-6.455.506-7.742.159-.495.219-.778-.061-1.397.029-.768.11-1.88.58-2.513.788.355.256 1.045 2.098 1.383 2.418 1.709 1.618 2.974 1.728 3.507 4.397.252 1.26.423 3.61.409 5.094l-.02 2.05-2.67.054c-3.29-.445-4.907-1.71-6.86-3.35-.731-.613-2.354-1.496-2.892-2.275-1.502-2.175-1.266-4.457-1.31-6.165-.674.043-.672.421-1.347.426-.678.005-2.032-.364-2.71-.399.095.146.188.295.278.45 1.186 2.043.988 3.857.77 6.597-.104 1.291.319 3.249-.096 4.683l-.576 1.987-2.996-.726c-1.677-.746-2.011-2.784-3.197-3.78-1.745-1.464-3.097-2.113-3.752-4.09-.892-2.694-.325-5.244.142-6.918-1.417-.48-2.59-.448-3.168-.672-.943-.366-1-.918-2.523-2.287v.806c-.178.504-.854 1.543-.951 2.064v1.598l-.194.78-.957.65v1.596c-.016.13.52.667.504.813l-.504 1.062c-.696 8.64 4.028 17.095 10.336 22.838.63.57 1.537 1.4 1.537 2.31.004.734-.616 2.512-.681 3.173-.194 1.948-.012 2.588 0 4.702.01 1.072.654 2.297.68 3.677.019.945-.894 2.711-1.052 3.075-.792 1.773-1.084-2.528-1.585-5.961-.453-3.043-.825-4.777-1.149-8.16-1.33-1.042-3.02-3.113-4.072-4.573-1.775-2.464-2.694-4.61-4.014-7.502C2.474 44.318.89 42.578.437 39.96c-.227-1.318.29-1.936.225-3.286l-.049-1.009v-.618l.016-.472L0 31.987c.13-1.933.98-3.54 1.424-5.405.61-2.564.948-5.348 2.118-7.692 2.022-4.068 5.79-7.86 9.235-10.837 3.445-2.993 6.582-5.14 10.933-6.54C27.87.182 30.16.183 34.512.487 34.728.5 37.062-.02 37.279 0c2.103.18 3.273 1.174 5.313 1.756.172.05 1.43-.052 1.602 0 1.1.325.64-.44 1.708 0 .259.114.533.211.792.342l.388.179L48.23 3.89l1.407.716c.453.211 1.697-.148 2.199.145.5.31 1.067.602 1.52.944l1.423 1.693c.469.341.906.715 1.359 1.073.452.358.89.032 1.31.439.42.39.857.781 1.261 1.188.793.846 1.601 1.676 2.313 2.603 1.055 1.282 2.723 2.511 3.571 3.942 1.52 2.563 1.987 5.47 2.817 8.341a35.329 35.329 0 0 1 1.197 6.85c.065.57-.598 1.464-.582 2.05.016.57.016 1.025 0 1.53l.614 3.042.016.862 4.21 9.08 1.548 1.642-.274 1.497.275.537.195.407c.161.407 1.098.308 1.179.764.13.472.194 1.009.21 1.546.049 1.09-.501 1.922-1.164 3.012-.647 1.106-1.359 2.357-2.33 2.828-.986.488-1.956-.097-2.862 0-.259.017-.485.814-.68.814.017 2.668-.937 4.825-.921 7.493l.469.853-.47.083-.015.342c-.016.227.032.813.016.927-.018.144.003 1.069-.016 1.219-.034.256-.564.663-.615.878-.08.342.113 1.204 0 1.53-.437 1.318-.048 1.008-.97 2.017-1.828 2.05-3.912 2.762-6.693 2.73-.21 0-1.022.524-1.183.492-7.036-1.188-13.583-2.747-20.602-4l-5.728-.621h-.458l-.444-1.203h-1.104l-1.002.585c-1.278-.407-2.394-1.789-3.364-2.65-1.925-1.693-3.17-1.642-3.283-4.213-.033-.732 0-2.867 0-3.338l.537-2.02v-3.358c.113-4.555-.025-9.052.546-9.672.38-.413.934-.093 1.66.961.237.902.586 1.918.54 3.143-.067 1.78-.607 3.998-.54 6.927l.963 2.977-.423 1.042.471.91c.017.147.017.294.033.424.145 1.139 2.164 3.613 3.054 4.313.436.357-.146.797.356.927l1.148.976h1.31l1.2.113 4.88-.113c3.493.53 8.236 2.407 11.639 2.65 3.403.245 5.787 1.45 9.144 2.018l1.63-1.3c1.052-.033 2.055-.52 2.783-1.302.388-.406.905.03 1.083-.491.049-.13-.161-1.217-.113-1.347.032-.13.696-.018.728-.115.016-.147.57-1.057.587-1.268l-1.202-.13c.033-3.726.599-7.024.615-10.75.016-1.432.614-2.998 2.005-2.982l2.429.701c.34 0 1.34-.733 1.566-.798.226-.066.388-.163.47-.228.08-.065.145.439.177.341.032-.097.698-.945.65-1.189-.017-.097-.699-.128-.73-.21-.033-.162.096-.585.08-.65h-.323l-.324-.897.113-1.487-5.526-10.453c-.178-.358.645-1.118.645-3.776l-1.442-3.043c0-1.545.404-3.432.21-4.896-.324-2.896-1.465-5.223-2.63-7.892-1.002-1.936-.928-3.9-2.303-5.577-1.375-1.675-3.83-4.071-5.496-5.438l-2.25-1.512c-.437-.326-1.664-.49-2.117-.783-.453-.309-.006-.553-.459-.813-.453-.244.925-.308-1.87-1.48h-1.924c-.485-.212-.672-.786-1.173-.965-1.003-.374-2.537-.495-3.572-.771-2.054-.537-2.867-1.29-4.97-1.354l-.775-.017h-.712c-.032 0-.412.282-1.139.846-1.908 0-2.409-.96-2.927-.846h-3.072c-3.707.665-6.655 1.779-9.67 3.787zm-7.785 8.51a75.093 75.093 0 0 0-2.776 4.505c1.587 1.392.431 1.339 1.562 1.8.227.093.67-.212 1.113-.023-.154-.571.11-1.368.042-2.03-.082-.806-.469-1.496-.346-2.41.083-.623.218-1.237.405-1.841zm-3.669 5.11c-.369.105-.746.282-1.025 1.222l1.025-1.223zm35.247-4.198c-.152.117-.409-.834-.583-.694-.932.745-3.312 4.075-3.792 5.02-.351.692.118 1.654-.048 2.097 1.2.133 4.09-.127 5.833-1.01 1.812-.918 4.677-5.1 6.399-7.002-1.202-.023-4.051.775-4.985.816-1.058.047-1.963.115-2.824.773zM14.365 22.46c.945-.722 3.163.724 2.78-4.94-.027-.39.996-.996 1.1-1.61.353-2.061-.254-4.847-1.156-6.829-1.827 1.719-4.797 4.388-4.91 6.429-.111 1.975 1.529 5.773 2.186 6.95zm6.383 14.6c.089-1.098.565-4.737.345-6.111-.266-1.658-1.29-1.035-1.908-1.979-1.068-1.63-2.818-3.466-3.914-4.052-.197 1.108-1.628 3.804-.873 5.577.788 1.851 4.107 5.13 6.35 6.564zm7.257-14.368c.889-.728 2.985-3.375 3.624-5.059.39-1.028.74-2.416.209-3.704-.381-.925-1.574-1.73-1.86-2.635-1.768 1.703-3.462 4.29-3.796 6.12-.319 1.745 1.41 4.305 1.823 5.278zm1.197 9.701c1.068 1.54 4.173 2.91 6.513 3.514-.255-2.45-.68-4.692-2.03-5.987-.859-.825-1.469-2.934-2.82-3.746-.678-.408-2.333.137-2.711.075.01.683-.156 2.602-.106 3.827.036.872.727 1.702 1.154 2.317z"/>
</svg>
