<svg xmlns="http://www.w3.org/2000/svg" width="115" height="120" viewBox="0 0 115 120">
    <path fill="#FFF" fill-rule="nonzero" d="M98.557 93.577c.064-1.135.106-2.286.111-3.466.025-2.147.93-4.497 3.035-4.473l3.675 1.051c.514 0 2.027-1.1 2.37-1.197.342-.098.587-.244.71-.342.122-.097.22.66.268.513.05-.147 1.057-1.418.983-1.784-.024-.146-1.056-.193-1.105-.315-.049-.244.147-.879.122-.976h-.49l-.489-1.345.172-2.23-8.363-15.68c-.269-.537.976-1.677.976-5.664l-2.182-4.564c0-2.318.612-5.148.318-7.344-.49-4.344-2.217-7.836-3.979-11.838-1.517-2.904-1.405-5.852-3.485-8.366-2.08-2.513-5.796-6.107-8.316-8.157l-3.406-2.268c-.66-.488-2.517-.735-3.202-1.174-.685-.463-.01-.83-.695-1.22-.685-.366 1.4-.462-2.829-2.22h-2.912c-.734-.318-1.016-1.179-1.774-1.447-1.518-.561-3.84-.742-5.405-1.157-3.108-.805-4.338-1.934-7.52-2.032l-1.174-.024h-1.077c-.05 0-.623.423-1.723 1.269-2.888 0-3.646-1.44-4.429-1.27h-4.65c-5.551.988-9.977 2.634-14.491 5.589 1.033 1.654 2.89 2.316 3.41 3.992 1.265 4.089-.659 7.298-1.811 10.827-.916 2.803 0 5.372-3.285 8.35.8.148 1.603.278 2.411.386 1.069.143 2.048-.459 3.117-.387 1.403.094 2.896.837 4.295.81-1.005-2.31-1.099-5.446-.615-9.16.406-3.118.653-6.124 2.794-8.848 1.467-1.867 2.47-3.573 4.737-5.233l3.587-1.902.95 3.874c.976 1.892 2.961 2.57 3.48 4.363 1.182 4.08-.355 7.267-1.555 10.757-.475 1.382-.353 3.248-1.058 4.32 1.148-.325 1.492-1.007 2.612-1.416.735-.268 2.254-.24 2.976-.544.253-.974 1.464-2.185 2.113-3.462.947-1.866 1.623-3.897 4.042-5.729 4.222-3.196 8.434-4.329 15.29-3.21h4.599l-.987 4.092c-.976 3.013-2.937 3.613-4.67 5.947-2.062 2.777-3.968 5.92-6.565 7.162-5.34 2.555-9.75.561-11.71 0-.74.314-1.178-.115-2.113 0-1.157.144-2.825.814-3.777 1.107.544.396 1.646 3.184 2.168 3.676 2.635 2.482 4.553 2.687 5.442 6.712.42 1.901.751 5.436.776 7.666l.033 3.077h-4.04c-4.991-.769-7.476-2.72-10.48-5.242-1.127-.946-3.61-2.322-4.448-3.508-2.34-3.314-2.054-6.735-2.173-9.302-1.018.044-1.004.612-2.024.598-1.026-.014-3.086-.61-4.114-.683.149.222.294.448.435.683 1.857 3.107 1.615 5.827 1.368 9.936-.116 1.936.584 4.89 0 7.032L32 61.154l-4.556-1.183c-2.56-1.173-3.13-4.246-4.954-5.777-2.686-2.253-4.751-3.27-5.803-6.26-1.433-4.075-.654-7.889 0-10.39-2.159-.764-3.933-.751-4.812-1.105-1.288-.518-1.506-1.239-3.219-2.891-.04.116-.079.24-.117.375v2.854c-.269.756-1.292 2.315-1.439 3.096v2.396l-.294 1.172-1.448.974v2.394c-.024.195.788 1 .763 1.22l-.763 1.593C4.307 62.582 11.455 75.264 21 83.88c.955.854 2.326 2.099 2.326 3.466.006 1.1-.931 3.767-1.03 4.758-.294 2.922-.019 3.883 0 7.053.014 1.608.989 3.446 1.03 5.516.028 1.417-1.354 4.066-1.593 4.612-1.199 2.66-1.64-3.793-2.399-8.942-.685-4.564-1.248-7.165-1.737-12.24-2.013-1.563-4.572-4.67-6.163-6.859-2.686-3.695-4.076-6.915-6.074-11.252-1.615-3.515-4.013-6.124-4.698-10.053-.343-1.976.438-2.903.34-4.928l-.073-1.514v-.927l.024-.708L0 47.981c.196-2.9 1.484-5.31 2.155-8.108.922-3.845 1.434-8.022 3.204-11.539 3.06-6.1 8.762-11.788 13.974-16.254 5.213-4.49 9.96-7.71 16.543-9.81C42.171.271 45.638.273 52.222.73c.327.022 3.86-.757 4.187-.728 3.182.27 4.952 1.76 8.039 2.634.26.074 2.165-.077 2.424 0 1.664.489.97-.658 2.585 0 .391.171.807.318 1.199.513l.587.268 1.736 2.418 2.129 1.074c.685.318 2.567-.22 3.326.219.758.464 1.615.903 2.3 1.415l2.154 2.54c.71.512 1.37 1.073 2.055 1.61.686.537 1.346.048 1.983.658.636.586 1.297 1.171 1.909 1.782 1.199 1.269 2.422 2.513 3.5 3.904 1.595 1.924 4.12 3.767 5.403 5.914 2.299 3.844 3.006 8.205 4.263 12.512a52.575 52.575 0 0 1 1.81 10.274c.099.854-.905 2.196-.88 3.075.024.854.024 1.537 0 2.294l.93 4.564.024 1.293 6.37 13.62 2.342 2.463-.414 2.246.416.805.294.61c.245.61 1.662.463 1.784 1.146.196.708.294 1.513.318 2.319.074 1.635-.758 2.883-1.762 4.518-.978 1.66-2.055 3.535-3.524 4.243-1.492.732-2.96-.146-4.331 0-.392.024-.734 1.22-1.028 1.22.004.663-.032 1.304-.095 1.932.377.32.452.838-.033 1.662a1.045 1.045 0 0 1-.238.269c-.42 2.419-1.045 4.73-1.029 7.377l.71 1.28-.71.124-.024.512c-.025.342.049 1.22.024 1.391-.027.216.005 1.604-.024 1.829-.051.385-.853.994-.93 1.318-.123.512.171 1.805 0 2.294-.661 1.976-.074 1.513-1.469 3.026-2.765 3.075-5.918 4.142-10.127 4.093-.318 0-1.546.788-1.79.739-10.646-1.782-20.553-4.12-31.174-5.999l-8.668-.932h-.692l-.673-1.804h-1.67l-1.516.877c-1.934-.61-3.622-2.683-5.09-3.976-2.913-2.538-4.797-2.462-4.969-6.318-.049-1.098 0-4.3 0-5.008l.814-3.028v-5.038c.17-6.833-.037-13.579.826-14.508.576-.62 1.413-.14 2.511 1.441.359 1.353.887 2.877.817 4.714-.1 2.67-.918 5.997-.817 10.391l1.458 4.466-.64 1.562.713 1.367c.025.22.025.439.05.634.22 1.708 3.274 5.42 4.62 6.47.66.536-.22 1.195.539 1.39l1.737 1.465h1.982l1.817.168 7.385-.168c5.285.793 12.461 3.61 17.61 3.976 5.15.366 8.757 2.173 13.837 3.026l2.467-1.95c1.591-.05 3.108-.782 4.21-1.953.587-.61 1.37.044 1.64-.737.073-.196-.245-1.825-.172-2.02.049-.196 1.052-.027 1.101-.174.025-.22.864-1.584.888-1.901l-1.818-.195c.026-2.932.274-5.688.507-8.452L95.081 99.1c-.426.044-1.003-.098-1.418 0-2.642.625-4.946 2.4-7.677 2.834-4.504.71 1.013-4.065 2.543-4.705.591-.247 2.624-2.184 5.134-3.024 1.746-.585 3.71-.663 4.894-.627zM14.458 26.159c-.85 1.323-1.632 2.6-2.32 3.768.377.696-.064.8 1.113 1.296.347.147 1.009-.298 1.684 0-.251-.863.123-2.053 0-3.047-.085-.696-.32-1.338-.477-2.017zm49.479-1.054c-.224.168-.642-1.255-.899-1.053-1.372 1.076-4.828 5.949-5.514 7.338-.503 1.018.233 2.465 0 3.118 1.802.238 6.13-.049 8.713-1.303 2.685-1.303 6.839-7.426 9.355-10.197-1.803-.075-6.048 1.015-7.447 1.044-1.585.033-2.94.104-4.208 1.053zm-42.85 9.193c1.404-1.134 4.399.745 4.4-7.412 0-.56 1.502-1.535 1.709-2.432.694-3.016.104-6.987-.98-9.767-2.746 2.66-7.197 6.804-7.553 9.767-.345 2.867 1.608 8.204 2.424 9.844zm8.22 22.248c.253-1.736 1.373-7.512 1.182-9.651-.23-2.58-1.87-1.491-2.718-2.91-1.466-2.451-3.957-5.152-5.578-5.957-.422 1.765-2.906 6.16-1.937 8.868 1.012 2.829 5.76 7.631 9.05 9.65zm12.688-21.371c1.422-1.113 4.688-5.269 5.602-7.977.559-1.654 1.013-3.902 0-6.071-.725-1.557-2.803-2.993-3.367-4.508-2.806 2.634-5.403 6.727-5.792 9.706-.37 2.838 2.773 7.21 3.557 8.85zm2.318 14.358c1.745 2.443 6.684 4.71 10.388 5.75-.507-3.822-1.272-7.331-3.45-9.406-1.385-1.32-2.435-4.63-4.594-5.952-1.083-.664-3.66.112-4.257 0 .045 1.063-.132 4.042 0 5.952.093 1.359 1.215 2.68 1.913 3.656zm43.877 6.474c-.816 2.496-2.88 2.667-4.534 1.924-1.835-.823-3.309-2.757-5.101-3.628-2.553 1.85-3.974 4.987-6.46 7.002-1.96 1.586-1.84.057-1.598-1.722.195-1.437.302-2.986.751-3.576.295-.385 2.127-.953 2.891-1.704 1.28-1.258 1.432-2.851 0-3.655-.852-.477-4.458-4.368-2.89-5.293 1.253-.74 3.763.855 4.353 1.978.206.391 1.045.198 1.324 1.016.496 1.45 2.192-.836 2.83-1.016.64-.18 5.066-4.014 5.04-.504-.012 1.228-3.093 3.468-3.797 4.282.421.37 1.263 1.746 2.657 2.483 2.07 1.093 4.785 1.643 4.534 2.413z"/>
</svg>
