<svg xmlns="http://www.w3.org/2000/svg" width="57" height="60" viewBox="0 0 57 60">
    <path fill="#005EE0" fill-rule="nonzero" d="M13.61 5.77l.496.957c.472.914 1.47 1.214 1.722 2.088.586 2.03-.4 3.652-1.008 5.426-.482 1.41-.055 2.683-1.714 4.204.395.066.792.123 1.192.169.528.06 1.02-.25 1.55-.225.694.033 1.427.388 2.12.36-.474-1.143-.489-2.709-.21-4.568.233-1.562.385-3.066 1.475-4.448.746-.948 1.261-1.81 2.402-2.662l1.799-.987.43 1.925c.466.935 1.443 1.254 1.682 2.144.544 2.026-.25 3.633-.88 5.389-.25.695-.209 1.626-.57 2.168.573-.174.751-.518 1.31-.734.368-.141 1.12-.142 1.482-.302.135-.489.748-1.106 1.083-1.75.488-.942.844-1.963 2.063-2.903 2.126-1.64 4.226-2.248 7.615-1.76l2.28-.047-.532 2.055c-.514 1.515-1.493 1.835-2.376 3.018-1.05 1.408-2.028 2.997-3.328 3.644-2.674 1.33-4.841.38-5.807.12-.37.164-.583-.046-1.048.021-.575.083-1.41.435-1.884.591.266.193.784 1.574 1.038 1.814 1.281 1.213 2.23 1.296 2.63 3.297.188.946.317 2.708.306 3.821l-.015 1.537-2.002.041c-2.468-.333-3.68-1.283-5.145-2.512-.549-.46-1.766-1.122-2.169-1.706-1.126-1.632-.95-3.343-.983-4.624-.505.032-.504.316-1.01.32-.508.003-1.524-.274-2.033-.3.072.11.142.221.209.337.89 1.532.741 2.894.577 4.948-.077.969.24 2.437-.072 3.513l-.432 1.49-2.247-.545c-1.257-.56-1.508-2.088-2.397-2.834-1.31-1.098-2.323-1.585-2.814-3.068-.67-2.02-.244-3.933.106-5.189-1.063-.36-1.943-.336-2.375-.503-.708-.275-.75-.69-1.893-1.716v.604c-.133.379-.64 1.158-.713 1.548v1.199l-.146.585-.718.487v1.197c-.012.098.39.5.379.61l-.379.797c-.521 6.48 3.022 12.821 7.752 17.129.473.427 1.153 1.049 1.153 1.732.003.55-.461 1.884-.51 2.38-.146 1.46-.01 1.94 0 3.526.006.804.49 1.723.51 2.758.014.708-.671 2.033-.79 2.306-.594 1.33-.812-1.896-1.188-4.471-.34-2.282-.62-3.582-.862-6.12-.997-.781-2.266-2.335-3.054-3.43-1.331-1.847-2.02-3.457-3.01-5.626-.801-1.757-1.99-3.061-2.33-5.026-.17-.988.218-1.451.17-2.464l-.037-.757v-.463l.012-.354L0 23.99c.097-1.45.735-2.654 1.068-4.054.457-1.922.71-4.01 1.588-5.769C4.173 11.117 7 8.273 9.583 6.04c2.583-2.245 4.936-3.855 8.2-4.905 3.119-1 4.838-.999 8.1-.77.163.01 1.914-.38 2.076-.365 1.577.135 2.455.88 3.985 1.318.129.037 1.073-.04 1.201 0 .825.244.48-.33 1.281 0 .194.085.4.158.595.256l.29.134.861 1.21 1.055.536c.34.159 1.273-.11 1.649.11.376.231.8.45 1.14.707l1.068 1.27c.351.256.679.537 1.018.805.34.269.668.024.983.329.315.293.643.586.946.89.594.635 1.2 1.258 1.735 1.953.79.962 2.042 1.884 2.678 2.957 1.14 1.922 1.49 4.103 2.113 6.256.473 1.684.764 3.404.897 5.137.049.427-.448 1.098-.436 1.538.012.427.012.768 0 1.147l.46 2.281.013.647 3.157 6.81 1.161 1.231-.205 1.123.206.403.146.305c.12.305.823.232.884.573.097.354.146.757.158 1.16.036.817-.376 1.441-.874 2.259-.485.83-1.018 1.767-1.746 2.121-.74.366-1.468-.073-2.147 0-.194.012-.364.61-.51.61.012 2.001-.703 3.619-.691 5.62l.352.64-.352.062-.012.256c-.012.171.024.61.012.696-.014.108.002.801-.012.914-.025.192-.423.497-.461.659-.06.256.085.903 0 1.147-.328.988-.037.756-.728 1.513-1.37 1.537-2.933 2.071-5.02 2.047-.157 0-.766.393-.887.369-5.277-.89-10.187-2.06-15.451-3l-4.296-.466h-.344l-.333-.902h-.827l-.753.439c-.958-.305-1.795-1.341-2.523-1.988-1.443-1.27-2.377-1.23-2.462-3.159-.024-.549 0-2.15 0-2.504l.403-1.514v-2.519c.085-3.417-.018-6.79.41-7.254.285-.31.7-.07 1.245.72.177.677.439 1.439.404 2.358-.05 1.334-.455 2.998-.404 5.195l.722 2.233-.318.781.354.683c.012.11.012.22.025.318.109.854 1.623 2.71 2.29 3.234.328.269-.11.598.267.696l.861.732h.983l.9.084 3.66-.084c2.62.397 6.177 1.805 8.729 1.988 2.552.183 4.34 1.087 6.858 1.513l1.223-.975c.789-.025 1.54-.39 2.087-.977.29-.305.679.022.812-.368.037-.098-.121-.913-.085-1.01.025-.098.522-.014.546-.087.012-.11.428-.792.44-.95l-.9-.098c.023-2.794.448-5.268.46-8.062.012-1.074.461-2.25 1.504-2.237l1.822.526c.254 0 1.004-.55 1.174-.6a1.04 1.04 0 0 0 .352-.17c.06-.049.11.33.133.256.025-.073.524-.708.488-.891-.012-.074-.524-.097-.548-.158-.024-.122.073-.44.06-.488h-.242l-.243-.672.085-1.116-4.145-7.84c-.133-.268.484-.838.484-2.832l-1.082-2.281c0-1.16.304-2.575.158-3.673-.242-2.172-1.099-3.917-1.972-5.918-.752-1.453-.696-2.926-1.727-4.183-1.031-1.257-2.873-3.054-4.122-4.079l-1.689-1.134c-.327-.244-1.247-.367-1.587-.587-.34-.232-.004-.415-.344-.61-.34-.183.693-.23-1.402-1.11h-1.444c-.364-.159-.503-.59-.88-.724-.751-.28-1.902-.37-2.678-.578-1.54-.403-2.15-.967-3.727-1.016l-.582-.012h-.534c-.024 0-.309.211-.854.634-1.431 0-1.807-.72-2.195-.634h-2.305c-2.78.499-4.99 1.334-7.253 2.84zm-5.839 6.382A56.32 56.32 0 0 0 5.69 15.53c1.19 1.045.324 1.004 1.172 1.35.17.07.503-.159.835-.017-.116-.428.082-1.026.031-1.522-.062-.605-.351-1.122-.26-1.808.063-.467.164-.928.304-1.38zM5.02 15.983c-.277.08-.56.213-.77.917l.77-.917zm26.435-3.147c-.114.087-.306-.626-.437-.521-.7.558-2.485 3.056-2.844 3.765-.264.52.088 1.24-.036 1.573.9.1 3.068-.096 4.375-.758 1.358-.688 3.507-3.824 4.798-5.251-.9-.017-3.037.581-3.738.612-.794.035-1.472.086-2.118.58zm-20.682 4.01c.71-.542 2.373.542 2.085-3.706-.02-.292.748-.747.826-1.207.264-1.547-.19-3.636-.867-5.122-1.37 1.289-3.598 3.29-3.683 4.821-.083 1.482 1.147 4.33 1.64 5.213zm4.788 10.948c.066-.822.423-3.551.259-4.582-.2-1.244-.968-.777-1.431-1.484-.801-1.223-2.114-2.6-2.936-3.04-.148.832-1.22 2.854-.655 4.183.591 1.389 3.08 3.847 4.763 4.923zm5.443-10.775c.666-.546 2.238-2.531 2.718-3.794.293-.771.554-1.812.156-2.778-.285-.694-1.18-1.298-1.394-1.977-1.327 1.278-2.597 3.218-2.848 4.591-.239 1.308 1.058 3.228 1.368 3.958zm.898 7.276c.8 1.155 3.13 2.182 4.884 2.635-.191-1.837-.51-3.519-1.522-4.49-.644-.619-1.102-2.2-2.116-2.81-.508-.305-1.749.103-2.033.057.008.512-.116 1.951-.079 2.87.027.654.546 1.276.866 1.738z"/>
</svg>
