<svg xmlns="http://www.w3.org/2000/svg" style="position:absolute; width: 0; height: 0;"><defs><path id="caesarapp-logo-white-a" d="M11.13 12.376l.02.06c.026 1.454-.445 2.636-1.414 3.547-.969.912-2.281 1.367-3.936 1.367-1.676 0-3.037-.564-4.085-1.692C.667 14.529.144 13.087.144 11.33V8.597c0-1.75.517-3.193 1.552-4.327C2.73 3.135 4.076 2.567 5.73 2.567c1.694 0 3.03.446 4.005 1.337.976.892 1.45 2.09 1.424 3.597l-.02.06H8.825c0-.967-.262-1.72-.784-2.26-.522-.54-1.292-.81-2.31-.81-.98 0-1.756.389-2.33 1.165-.576.776-.863 1.75-.863 2.921v2.753c0 1.185.294 2.165.882 2.941.588.776 1.381 1.165 2.38 1.165.991 0 1.744-.267 2.256-.8.512-.533.769-1.286.769-2.26h2.305zm8.474 4.767a8.86 8.86 0 0 1-.211-.79 5.652 5.652 0 0 1-.114-.77c-.328.5-.76.92-1.295 1.259a3.293 3.293 0 0 1-1.799.508c-1.11 0-1.962-.286-2.557-.858-.594-.573-.892-1.359-.892-2.359 0-1.033.408-1.837 1.222-2.413.815-.576 1.961-.863 3.44-.863h1.862v-.938c0-.559-.165-.997-.493-1.312-.329-.316-.798-.474-1.41-.474-.544 0-.978.132-1.3.395a1.253 1.253 0 0 0-.483 1.016H13.27l-.01-.059c-.046-.842.33-1.589 1.128-2.24.798-.651 1.838-.977 3.119-.977 1.241 0 2.243.316 3.005.947.762.632 1.143 1.54 1.143 2.724v4.747c0 .44.03.863.089 1.268.059.404.154.8.285 1.189h-2.424zm-2.936-1.717c.604 0 1.148-.152 1.63-.454.484-.303.804-.648.962-1.036v-1.58h-1.902c-.696 0-1.242.173-1.636.519-.394.345-.591.751-.591 1.219 0 .407.133.731.399.972.266.24.645.36 1.138.36zm12.07 1.924c-1.51 0-2.714-.495-3.61-1.485-.897-.99-1.346-2.262-1.346-3.814v-.395c0-1.553.445-2.84 1.336-3.863.89-1.024 2.005-1.532 3.345-1.525 1.438 0 2.54.436 3.306 1.307.765.872 1.148 2.042 1.148 3.509v1.41h-6.652l-.02.05c.04.849.288 1.543.745 2.082.456.54 1.089.81 1.897.81.643 0 1.195-.08 1.655-.237a5.42 5.42 0 0 0 1.33-.681l.769 1.569c-.4.355-.933.655-1.597.898-.663.243-1.432.365-2.305.365zm-.275-9.158c-.591 0-1.077.235-1.458.706-.382.47-.618 1.067-.71 1.79l.02.05h4.227v-.246c0-.678-.172-1.23-.517-1.658-.345-.428-.866-.642-1.562-.642zm12.376 6.05c0-.369-.158-.675-.473-.918-.315-.244-.903-.457-1.764-.642-1.274-.27-2.238-.653-2.892-1.15-.653-.496-.98-1.172-.98-2.027 0-.895.377-1.658 1.133-2.29.755-.631 1.75-.947 2.986-.947 1.3 0 2.333.32 3.098.962.766.641 1.132 1.436 1.1 2.383l-.02.06H40.73c0-.441-.168-.82-.503-1.135-.335-.316-.795-.474-1.38-.474-.578 0-1.018.13-1.32.39-.302.26-.453.577-.453.952s.143.673.429.893c.285.22.865.416 1.739.587 1.34.277 2.333.666 2.98 1.17.647.503.971 1.189.971 2.057 0 .96-.396 1.74-1.187 2.34-.792.598-1.835.897-3.129.897-1.386 0-2.48-.355-3.281-1.066-.802-.71-1.183-1.526-1.143-2.447l.02-.06H36.7c.027.62.25 1.07.67 1.353.42.283.933.424 1.538.424.617 0 1.093-.118 1.428-.355.335-.237.503-.556.503-.957zm10.918 2.9a8.86 8.86 0 0 1-.212-.789 5.652 5.652 0 0 1-.113-.77c-.329.5-.76.92-1.296 1.259a3.293 3.293 0 0 1-1.798.508c-1.11 0-1.963-.286-2.557-.858-.595-.573-.892-1.359-.892-2.359 0-1.033.407-1.837 1.222-2.413.814-.576 1.96-.863 3.439-.863h1.862v-.938c0-.559-.164-.997-.493-1.312-.328-.316-.798-.474-1.409-.474-.545 0-.979.132-1.3.395a1.253 1.253 0 0 0-.483 1.016H45.42l-.01-.059c-.046-.842.33-1.589 1.128-2.24.798-.651 1.838-.977 3.119-.977 1.241 0 2.243.316 3.005.947.762.632 1.143 1.54 1.143 2.724v4.747c0 .44.03.863.089 1.268.06.404.154.8.286 1.189h-2.424zm-2.937-1.716c.605 0 1.148-.152 1.631-.454.483-.303.803-.648.96-1.036v-1.58h-1.9c-.697 0-1.242.173-1.637.519-.394.345-.59.751-.59 1.219 0 .407.132.731.398.972.266.24.646.36 1.138.36zm12.81-6.8l-1.025-.04c-.466 0-.855.1-1.167.297a1.949 1.949 0 0 0-.725.839v7.42H56.32V6.466h2.187l.158 1.55c.27-.546.616-.974 1.04-1.283a2.41 2.41 0 0 1 1.463-.464c.144 0 .28.011.404.034.125.023.24.051.345.084l-.286 2.24zm9.755 5.162H65.77l-1.143 3.355h-2.424l5.271-14.369h2.267l5.212 14.369h-2.434l-1.133-3.355zm-4.927-2.004h4.247l-2.079-6.138h-.059l-2.109 6.138zm19.195.375c0 1.553-.364 2.806-1.094 3.76-.729.954-1.744 1.431-3.044 1.431-.605 0-1.14-.108-1.606-.326a3.306 3.306 0 0 1-1.203-.957v5.181h-2.394V6.465h2.02l.236 1.342c.342-.5.754-.881 1.237-1.144.483-.264 1.043-.395 1.68-.395 1.314 0 2.337.521 3.07 1.564.732 1.043 1.098 2.416 1.098 4.12v.207zm-2.384-.207c0-1.092-.206-1.985-.616-2.68-.41-.693-1.023-1.04-1.838-1.04-.5 0-.923.107-1.271.32a2.36 2.36 0 0 0-.838.893v4.826c.21.375.49.663.838.864.348.2.778.3 1.29.3.815 0 1.425-.3 1.829-.902.404-.602.606-1.393.606-2.374v-.207zm13.814.207c0 1.553-.364 2.806-1.093 3.76-.73.954-1.744 1.431-3.045 1.431-.605 0-1.14-.108-1.606-.326a3.306 3.306 0 0 1-1.202-.957v5.181h-2.395V6.465h2.02L90 7.807c.341-.5.753-.881 1.236-1.144.483-.264 1.043-.395 1.68-.395 1.314 0 2.337.521 3.07 1.564.732 1.043 1.098 2.416 1.098 4.12v.207zm-2.384-.207c0-1.092-.206-1.985-.616-2.68-.41-.693-1.023-1.04-1.838-1.04-.499 0-.923.107-1.27.32a2.36 2.36 0 0 0-.838.893v4.826c.21.375.489.663.837.864.348.2.779.3 1.29.3.815 0 1.425-.3 1.829-.902.404-.602.606-1.393.606-2.374v-.207z"> </path><path id="caesarapp-logo-a" d="M61.773 68.586l.11.328c.146 8.057-2.47 14.61-7.848 19.66-5.377 5.05-12.66 7.574-21.847 7.574-9.297 0-16.853-3.126-22.668-9.378C3.704 80.517.797 72.523.797 62.79V47.64c0-9.697 2.87-17.69 8.613-23.98 5.742-6.289 13.207-9.433 22.395-9.433 9.406 0 16.816 2.47 22.23 7.41 5.414 4.94 8.048 11.584 7.903 19.933l-.11.328H48.977c0-5.359-1.45-9.533-4.348-12.523-2.899-2.99-7.173-4.484-12.824-4.484-5.433 0-9.744 2.15-12.934 6.453-3.19 4.302-4.785 9.698-4.785 16.187V62.79c0 6.563 1.631 11.995 4.894 16.297 3.264 4.302 7.666 6.453 13.207 6.453 5.506 0 9.68-1.476 12.524-4.43 2.844-2.953 4.266-7.127 4.266-12.523h12.796zM108.805 95a49.043 49.043 0 0 1-1.176-4.375 31.275 31.275 0 0 1-.629-4.266c-1.823 2.771-4.22 5.095-7.191 6.973-2.972 1.878-6.299 2.816-9.98 2.816-6.162 0-10.893-1.585-14.192-4.757-3.3-3.172-4.95-7.529-4.95-13.07 0-5.725 2.26-10.182 6.782-13.372 4.52-3.19 10.883-4.785 19.086-4.785h10.336V54.97c0-3.1-.912-5.524-2.735-7.274s-4.43-2.625-7.82-2.625c-3.026 0-5.432.73-7.219 2.188-1.786 1.458-2.68 3.336-2.68 5.633H73.642l-.055-.328c-.255-4.667 1.832-8.805 6.262-12.415 4.43-3.609 10.199-5.414 17.308-5.414 6.89 0 12.45 1.75 16.68 5.25s6.344 8.532 6.344 15.094v26.305c0 2.443.164 4.785.492 7.027a37.315 37.315 0 0 0 1.586 6.59h-13.453zm-16.297-9.516c3.354 0 6.37-.838 9.05-2.515 2.68-1.677 4.458-3.591 5.333-5.742v-8.75H96.336c-3.865 0-6.89.957-9.078 2.87-2.188 1.915-3.281 4.166-3.281 6.755 0 2.26.738 4.056 2.214 5.386 1.477 1.331 3.582 1.996 6.317 1.996zM159.5 96.148c-8.385 0-15.066-2.743-20.043-8.23-4.977-5.487-7.465-12.533-7.465-21.137v-2.187c0-8.604 2.47-15.741 7.41-21.41 4.94-5.67 11.13-8.486 18.567-8.45 7.984 0 14.1 2.416 18.347 7.246 4.248 4.831 6.371 11.312 6.371 19.442v7.82h-36.914l-.109.274c.219 4.703 1.595 8.55 4.129 11.539 2.534 2.99 6.043 4.484 10.527 4.484 3.573 0 6.636-.437 9.188-1.312 2.552-.875 5.013-2.133 7.383-3.774l4.265 8.695c-2.224 1.97-5.177 3.628-8.86 4.977-3.681 1.349-7.947 2.023-12.796 2.023zm-1.531-50.75c-3.282 0-5.98 1.304-8.094 3.91-2.115 2.607-3.427 5.916-3.938 9.926l.11.274h23.46V58.14c0-3.756-.956-6.818-2.87-9.188-1.914-2.37-4.804-3.555-8.668-3.555zm68.687 33.524c0-2.042-.875-3.737-2.625-5.086-1.75-1.349-5.013-2.534-9.789-3.555-7.073-1.495-12.423-3.618-16.05-6.37-3.628-2.753-5.442-6.5-5.442-11.24 0-4.957 2.096-9.187 6.29-12.687 4.192-3.5 9.715-5.25 16.57-5.25 7.218 0 12.951 1.778 17.199 5.332 4.247 3.555 6.28 7.957 6.097 13.207l-.11.329h-12.741c0-2.443-.93-4.54-2.79-6.29-1.859-1.75-4.41-2.624-7.656-2.624-3.208 0-5.65.72-7.328 2.16-1.677 1.44-2.515 3.199-2.515 5.277 0 2.078.793 3.728 2.379 4.95 1.585 1.22 4.803 2.305 9.652 3.253 7.437 1.531 12.952 3.692 16.543 6.48 3.591 2.79 5.387 6.59 5.387 11.403 0 5.323-2.197 9.643-6.59 12.96-4.394 3.319-10.181 4.977-17.364 4.977-7.692 0-13.763-1.968-18.21-5.906-4.448-3.937-6.563-8.458-6.344-13.562l.11-.328h12.358c.146 3.427 1.386 5.924 3.72 7.492 2.333 1.567 5.176 2.351 8.53 2.351 3.428 0 6.07-.656 7.93-1.968 1.86-1.313 2.79-3.081 2.79-5.305zM287.25 95a49.043 49.043 0 0 1-1.176-4.375 31.275 31.275 0 0 1-.629-4.266c-1.823 2.771-4.22 5.095-7.191 6.973-2.971 1.878-6.298 2.816-9.98 2.816-6.162 0-10.892-1.585-14.192-4.757-3.3-3.172-4.95-7.529-4.95-13.07 0-5.725 2.261-10.182 6.782-13.372 4.52-3.19 10.883-4.785 19.086-4.785h10.336V54.97c0-3.1-.912-5.524-2.734-7.274-1.823-1.75-4.43-2.625-7.82-2.625-3.027 0-5.433.73-7.22 2.188-1.786 1.458-2.68 3.336-2.68 5.633h-12.796l-.055-.328c-.255-4.667 1.832-8.805 6.262-12.415 4.43-3.609 10.2-5.414 17.309-5.414 6.89 0 12.45 1.75 16.68 5.25 4.228 3.5 6.343 8.532 6.343 15.094v26.305c0 2.443.164 4.785.492 7.027a37.315 37.315 0 0 0 1.586 6.59H287.25zm-16.297-9.516c3.354 0 6.371-.838 9.05-2.515 2.68-1.677 4.458-3.591 5.333-5.742v-8.75H274.78c-3.864 0-6.89.957-9.078 2.87-2.187 1.915-3.281 4.166-3.281 6.755 0 2.26.738 4.056 2.215 5.386 1.476 1.331 3.582 1.996 6.316 1.996zm71.094-37.68l-5.688-.218c-2.588 0-4.748.547-6.48 1.64-1.732 1.094-3.072 2.644-4.02 4.649V95H312.57V35.828h12.14l.876 8.586c1.495-3.026 3.418-5.396 5.77-7.11 2.351-1.713 5.058-2.57 8.12-2.57.803 0 1.55.064 2.243.192.692.127 1.33.282 1.914.465l-1.586 12.414zm54.14 28.602h-31.171L358.672 95h-13.453l29.258-79.625h12.578L415.985 95h-13.508l-6.29-18.594zm-27.343-11.101h23.57l-11.539-34.016h-.328l-11.703 34.016zm106.531 2.078c0 8.604-2.023 15.55-6.07 20.836-4.047 5.286-9.68 7.93-16.899 7.93-3.354 0-6.325-.602-8.914-1.805-2.588-1.203-4.812-2.972-6.672-5.305v28.711h-13.289V35.828h11.211l1.313 7.438c1.896-2.771 4.183-4.886 6.863-6.344 2.68-1.458 5.788-2.188 9.324-2.188 7.292 0 12.97 2.89 17.035 8.668 4.065 5.779 6.098 13.39 6.098 22.832v1.149zm-13.234-1.149c0-6.052-1.14-11-3.418-14.847-2.279-3.847-5.679-5.77-10.2-5.77-2.77 0-5.122.593-7.054 1.778-1.933 1.184-3.482 2.834-4.649 4.949v26.742c1.167 2.078 2.716 3.673 4.649 4.785 1.932 1.112 4.32 1.668 7.164 1.668 4.52 0 7.902-1.668 10.144-5.004 2.243-3.336 3.364-7.72 3.364-13.152v-1.149zm76.671 1.149c0 8.604-2.023 15.55-6.07 20.836-4.047 5.286-9.68 7.93-16.898 7.93-3.354 0-6.326-.602-8.914-1.805-2.589-1.203-4.813-2.972-6.672-5.305v28.711h-13.29V35.828h11.212l1.312 7.438c1.896-2.771 4.184-4.886 6.863-6.344 2.68-1.458 5.788-2.188 9.325-2.188 7.291 0 12.97 2.89 17.035 8.668 4.065 5.779 6.097 13.39 6.097 22.832v1.149zm-13.234-1.149c0-6.052-1.14-11-3.418-14.847-2.279-3.847-5.678-5.77-10.2-5.77-2.77 0-5.121.593-7.054 1.778-1.932 1.184-3.482 2.834-4.648 4.949v26.742c1.166 2.078 2.716 3.673 4.648 4.785 1.933 1.112 4.32 1.668 7.164 1.668 4.521 0 7.903-1.668 10.145-5.004 2.242-3.336 3.363-7.72 3.363-13.152v-1.149z"> </path></defs><symbol viewBox="0 0 32 32" id="icon-4xxi-logo"><g fill="none" fill-rule="evenodd"><path fill="#BD1622" d="M0 15.386h15.386V0H0zm16.554 0H31.94V0H16.554zM0 31.94h15.386V16.553H0zm16.554 0H31.94V16.553H16.554z"></path><path fill="#FEFEFE" d="M5.584 8.814l2.371-3.598v3.598H5.584zm2.371 2.967h1.367v-1.764h1.04V8.814h-1.04V3.989h-1.88L4.24 8.919v1.098h3.715v1.764zm17.188-4.007l2.734-3.785h-1.648l-1.997 2.862-2.01-2.862h-1.635l2.745 3.797-2.92 3.995h1.635l2.185-3.05 2.184 3.05h1.636zM11.232 20.342H9.585l-1.998 2.862-2.01-2.862H3.943l2.746 3.796-2.92 3.995h1.635l2.184-3.049 2.185 3.05h1.635l-2.909-4.007zm12.322 7.791h1.367v-7.791h-1.367z"></path></g></symbol><symbol viewBox="0 0 11 16" id="icon-arrow-down"><path fill="#FFF" d="M9.029 9.864c.348-.175.71-.356.968-.049.237.281.22.682-.048 1.016-.482.596-.96 1.202-1.503 1.74-.872.865-1.797 1.675-2.7 2.512-.026.045-.052.085-.079.13a.452.452 0 0 1-.63.142l-.211-.138C2.99 14.01 1.64 12.242.04 10.764c-.074-.067-.074-.29-.03-.4.083-.223.298-.264.53-.228.754.12 1.226.228 1.891.38 1.37.315 1.501-.145 2.18.483a21.727 21.727 0 0 1-.087-1.923c.017-1.434.105-.868.162-2.302-.504-2.569-.215-3.382-.32-5.983-.004-.115.149-.298.254-.356.215-.111.394.036.53.254.452.726.649 1.607.702 2.502.127 2.16.32 2.501.175 4.67.017.267.035.539.048.806.057 1.353.083.711 0 2.06 1.21-.21 1.662-.21 2.954-.863z"></path></symbol><symbol viewBox="0 0 115 120" id="icon-caesar-head-dead"><path fill="#FFF" d="M98.557 93.577a66.36 66.36 0 0 0 .111-3.466c.025-2.147.93-4.497 3.035-4.473l3.675 1.051c.514 0 2.027-1.1 2.37-1.197a2.12 2.12 0 0 0 .71-.342c.122-.097.22.66.268.513.05-.147 1.057-1.418.983-1.784-.024-.146-1.056-.193-1.105-.315-.049-.244.147-.879.122-.976h-.49l-.489-1.345.172-2.23-8.363-15.68c-.269-.537.976-1.677.976-5.664l-2.182-4.564c0-2.318.612-5.148.318-7.344-.49-4.344-2.217-7.836-3.979-11.838-1.517-2.904-1.405-5.852-3.485-8.366-2.08-2.513-5.796-6.107-8.316-8.157l-3.406-2.268c-.66-.488-2.517-.735-3.202-1.174-.685-.463-.01-.83-.695-1.22-.685-.366 1.4-.462-2.829-2.22h-2.912c-.734-.318-1.016-1.179-1.774-1.447-1.518-.561-3.84-.742-5.405-1.157-3.108-.805-4.338-1.934-7.52-2.032l-1.174-.024h-1.077c-.05 0-.623.423-1.723 1.269-2.888 0-3.646-1.44-4.429-1.27h-4.65c-5.551.988-9.977 2.634-14.491 5.589 1.033 1.654 2.89 2.316 3.41 3.992 1.265 4.089-.659 7.298-1.811 10.827-.916 2.803 0 5.372-3.285 8.35.8.148 1.603.278 2.411.386 1.069.143 2.048-.459 3.117-.387 1.403.094 2.896.837 4.295.81-1.005-2.31-1.099-5.446-.615-9.16.406-3.118.653-6.124 2.794-8.848 1.467-1.867 2.47-3.573 4.737-5.233l3.587-1.902.95 3.874c.976 1.892 2.961 2.57 3.48 4.363 1.182 4.08-.355 7.267-1.555 10.757-.475 1.382-.353 3.248-1.058 4.32 1.148-.325 1.492-1.007 2.612-1.416.735-.268 2.254-.24 2.976-.544.253-.974 1.464-2.185 2.113-3.462.947-1.866 1.623-3.897 4.042-5.729 4.222-3.196 8.434-4.329 15.29-3.21h4.599l-.987 4.092c-.976 3.013-2.937 3.613-4.67 5.947-2.062 2.777-3.968 5.92-6.565 7.162-5.34 2.555-9.75.561-11.71 0-.74.314-1.178-.115-2.113 0-1.157.144-2.825.814-3.777 1.107.544.396 1.646 3.184 2.168 3.676 2.635 2.482 4.553 2.687 5.442 6.712.42 1.901.751 5.436.776 7.666l.033 3.077h-4.04c-4.991-.769-7.476-2.72-10.48-5.242-1.127-.946-3.61-2.322-4.448-3.508-2.34-3.314-2.054-6.735-2.173-9.302-1.018.044-1.004.612-2.024.598-1.026-.014-3.086-.61-4.114-.683.149.222.294.448.435.683 1.857 3.107 1.615 5.827 1.368 9.936-.116 1.936.584 4.89 0 7.032L32 61.154l-4.556-1.183c-2.56-1.173-3.13-4.246-4.954-5.777-2.686-2.253-4.751-3.27-5.803-6.26-1.433-4.075-.654-7.889 0-10.39-2.159-.764-3.933-.751-4.812-1.105-1.288-.518-1.506-1.239-3.219-2.891a6.79 6.79 0 0 0-.117.375v2.854c-.269.756-1.292 2.315-1.439 3.096v2.396l-.294 1.172-1.448.974v2.394c-.024.195.788 1 .763 1.22l-.763 1.593C4.307 62.582 11.455 75.264 21 83.88c.955.854 2.326 2.099 2.326 3.466.006 1.1-.931 3.767-1.03 4.758-.294 2.922-.019 3.883 0 7.053.014 1.608.989 3.446 1.03 5.516.028 1.417-1.354 4.066-1.593 4.612-1.199 2.66-1.64-3.793-2.399-8.942-.685-4.564-1.248-7.165-1.737-12.24-2.013-1.563-4.572-4.67-6.163-6.859-2.686-3.695-4.076-6.915-6.074-11.252-1.615-3.515-4.013-6.124-4.698-10.053-.343-1.976.438-2.903.34-4.928l-.073-1.514v-.927l.024-.708L0 47.981c.196-2.9 1.484-5.31 2.155-8.108.922-3.845 1.434-8.022 3.204-11.539 3.06-6.1 8.762-11.788 13.974-16.254 5.213-4.49 9.96-7.71 16.543-9.81C42.171.271 45.638.273 52.222.73c.327.022 3.86-.757 4.187-.728 3.182.27 4.952 1.76 8.039 2.634.26.074 2.165-.077 2.424 0 1.664.489.97-.658 2.585 0 .391.171.807.318 1.199.513l.587.268 1.736 2.418 2.129 1.074c.685.318 2.567-.22 3.326.219.758.464 1.615.903 2.3 1.415l2.154 2.54c.71.512 1.37 1.073 2.055 1.61.686.537 1.346.048 1.983.658.636.586 1.297 1.171 1.909 1.782 1.199 1.269 2.422 2.513 3.5 3.904 1.595 1.924 4.12 3.767 5.403 5.914 2.299 3.844 3.006 8.205 4.263 12.512a52.575 52.575 0 0 1 1.81 10.274c.099.854-.905 2.196-.88 3.075.024.854.024 1.537 0 2.294l.93 4.564.024 1.293 6.37 13.62 2.342 2.463-.414 2.246.416.805.294.61c.245.61 1.662.463 1.784 1.146.196.708.294 1.513.318 2.319.074 1.635-.758 2.883-1.762 4.518-.978 1.66-2.055 3.535-3.524 4.243-1.492.732-2.96-.146-4.331 0-.392.024-.734 1.22-1.028 1.22.004.663-.032 1.304-.095 1.932.377.32.452.838-.033 1.662a1.045 1.045 0 0 1-.238.269c-.42 2.419-1.045 4.73-1.029 7.377l.71 1.28-.71.124-.024.512c-.025.342.049 1.22.024 1.391-.027.216.005 1.604-.024 1.829-.051.385-.853.994-.93 1.318-.123.512.171 1.805 0 2.294-.661 1.976-.074 1.513-1.469 3.026-2.765 3.075-5.918 4.142-10.127 4.093-.318 0-1.546.788-1.79.739-10.646-1.782-20.553-4.12-31.174-5.999l-8.668-.932h-.692l-.673-1.804h-1.67l-1.516.877c-1.934-.61-3.622-2.683-5.09-3.976-2.913-2.538-4.797-2.462-4.969-6.318-.049-1.098 0-4.3 0-5.008l.814-3.028v-5.038c.17-6.833-.037-13.579.826-14.508.576-.62 1.413-.14 2.511 1.441.359 1.353.887 2.877.817 4.714-.1 2.67-.918 5.997-.817 10.391l1.458 4.466-.64 1.562.713 1.367c.025.22.025.439.05.634.22 1.708 3.274 5.42 4.62 6.47.66.536-.22 1.195.539 1.39l1.737 1.465h1.982l1.817.168 7.385-.168c5.285.793 12.461 3.61 17.61 3.976 5.15.366 8.757 2.173 13.837 3.026l2.467-1.95c1.591-.05 3.108-.782 4.21-1.953.587-.61 1.37.044 1.64-.737.073-.196-.245-1.825-.172-2.02.049-.196 1.052-.027 1.101-.174.025-.22.864-1.584.888-1.901l-1.818-.195c.026-2.932.274-5.688.507-8.452L95.081 99.1c-.426.044-1.003-.098-1.418 0-2.642.625-4.946 2.4-7.677 2.834-4.504.71 1.013-4.065 2.543-4.705.591-.247 2.624-2.184 5.134-3.024 1.746-.585 3.71-.663 4.894-.627zM14.458 26.159c-.85 1.323-1.632 2.6-2.32 3.768.377.696-.064.8 1.113 1.296.347.147 1.009-.298 1.684 0-.251-.863.123-2.053 0-3.047-.085-.696-.32-1.338-.477-2.017zm49.479-1.054c-.224.168-.642-1.255-.899-1.053-1.372 1.076-4.828 5.949-5.514 7.338-.503 1.018.233 2.465 0 3.118 1.802.238 6.13-.049 8.713-1.303 2.685-1.303 6.839-7.426 9.355-10.197-1.803-.075-6.048 1.015-7.447 1.044-1.585.033-2.94.104-4.208 1.053zm-42.85 9.193c1.404-1.134 4.399.745 4.4-7.412 0-.56 1.502-1.535 1.709-2.432.694-3.016.104-6.987-.98-9.767-2.746 2.66-7.197 6.804-7.553 9.767-.345 2.867 1.608 8.204 2.424 9.844zm8.22 22.248c.253-1.736 1.373-7.512 1.182-9.651-.23-2.58-1.87-1.491-2.718-2.91-1.466-2.451-3.957-5.152-5.578-5.957-.422 1.765-2.906 6.16-1.937 8.868 1.012 2.829 5.76 7.631 9.05 9.65zm12.688-21.371c1.422-1.113 4.688-5.269 5.602-7.977.559-1.654 1.013-3.902 0-6.071-.725-1.557-2.803-2.993-3.367-4.508-2.806 2.634-5.403 6.727-5.792 9.706-.37 2.838 2.773 7.21 3.557 8.85zm2.318 14.358c1.745 2.443 6.684 4.71 10.388 5.75-.507-3.822-1.272-7.331-3.45-9.406-1.385-1.32-2.435-4.63-4.594-5.952-1.083-.664-3.66.112-4.257 0 .045 1.063-.132 4.042 0 5.952.093 1.359 1.215 2.68 1.913 3.656zm43.877 6.474c-.816 2.496-2.88 2.667-4.534 1.924-1.835-.823-3.309-2.757-5.101-3.628-2.553 1.85-3.974 4.987-6.46 7.002-1.96 1.586-1.84.057-1.598-1.722.195-1.437.302-2.986.751-3.576.295-.385 2.127-.953 2.891-1.704 1.28-1.258 1.432-2.851 0-3.655-.852-.477-4.458-4.368-2.89-5.293 1.253-.74 3.763.855 4.353 1.978.206.391 1.045.198 1.324 1.016.496 1.45 2.192-.836 2.83-1.016.64-.18 5.066-4.014 5.04-.504-.012 1.228-3.093 3.468-3.797 4.282.421.37 1.263 1.746 2.657 2.483 2.07 1.093 4.785 1.643 4.534 2.413z"></path></symbol><symbol viewBox="0 0 61 64" id="icon-caesar-head"><path d="M17.66 9.736c.503.863 1.462 1.185 1.722 2.037.62 2.035-.343 3.638-.924 5.398-.461 1.398-.012 2.676-1.652 4.167.398.072.797.135 1.199.187.531.07 1.02-.232 1.551-.199.697.044 1.439.41 2.135.395-.495-1.15-.535-2.712-.286-4.563.208-1.554.337-3.052 1.408-4.414.734-.934 1.236-1.785 2.368-2.617l1.788-.956.464 1.928c.482.94 1.468 1.275 1.723 2.167.578 2.03-.193 3.62-.797 5.362-.24.69-.183 1.62-.536 2.155.572-.165.745-.505 1.303-.711.366-.136 1.121-.125 1.481-.278.128-.485.733-1.091 1.059-1.73.475-.93.815-1.944 2.023-2.862 2.107-1.601 4.204-2.175 7.613-1.632l2.287-.01-.5 2.041c-.491 1.503-1.468 1.807-2.335 2.973-1.032 1.388-1.987 2.957-3.281 3.582-2.662 1.285-4.852.3-5.825.025-.37.158-.586-.055-1.051.005-.576.074-1.408.411-1.882.56.27.196.812 1.582 1.07 1.826 1.306 1.231 2.26 1.329 2.693 3.332.205.947.362 2.707.37 3.818l.01 1.533-2.01.009c-2.48-.373-3.713-1.34-5.202-2.59-.559-.468-1.79-1.149-2.205-1.738-1.156-1.646-1.007-3.351-1.061-4.63-.506.024-.5.307-1.008.303-.51-.005-1.534-.297-2.045-.332.073.11.145.223.215.34.917 1.543.79 2.9.66 4.947-.063.964.279 2.435-.016 3.503l-.41 1.48-2.263-.58c-1.271-.578-1.548-2.108-2.452-2.867-1.331-1.117-2.357-1.619-2.873-3.107-.705-2.026-.309-3.928.022-5.175-1.072-.377-1.955-.367-2.392-.541-.63-.252-.743-.604-1.56-1.4a3.567 3.567 0 0 0-.025.085v1.426c-.133.379-.64 1.158-.713 1.548v1.199l-.146.585-.718.487v1.197c-.012.098.39.5.379.61l-.379.797c-.521 6.48 3.022 12.821 7.752 17.129.473.427 1.153 1.049 1.153 1.732.003.55-.461 1.884-.51 2.38-.146 1.46-.01 1.94 0 3.526.006.804.49 1.723.51 2.758.014.708-.671 2.033-.79 2.306-.594 1.33-.812-1.896-1.188-4.471-.34-2.282-.62-3.582-.862-6.12-.997-.781-2.266-2.335-3.054-3.43-1.331-1.847-2.02-3.457-3.01-5.626-.801-1.757-1.99-3.061-2.33-5.026-.17-.988.218-1.451.17-2.464l-.037-.757v-.463l.012-.354L4 27.99c.097-1.45.735-2.654 1.068-4.054.457-1.922.71-4.01 1.588-5.769 1.517-3.05 4.343-5.894 6.927-8.127 2.583-2.245 4.936-3.855 8.2-4.905 3.119-1 4.838-.999 8.1-.77.163.01 1.914-.38 2.076-.365 1.577.135 2.455.88 3.985 1.318.129.037 1.073-.04 1.201 0 .825.244.48-.33 1.281 0 .194.085.4.158.595.256l.29.134.861 1.21 1.055.536c.34.159 1.273-.11 1.649.11.376.231.8.45 1.14.707l1.068 1.27c.351.256.679.537 1.018.805.34.269.668.024.983.329.315.293.643.586.946.89.594.635 1.2 1.258 1.735 1.953.79.962 2.042 1.884 2.678 2.957 1.14 1.922 1.49 4.103 2.113 6.256.473 1.684.764 3.404.897 5.137.049.427-.448 1.098-.436 1.538.012.427.012.768 0 1.147l.46 2.281.013.647 3.157 6.81 1.161 1.231-.205 1.123.206.403.146.305c.12.305.823.232.884.573.097.354.146.757.158 1.16.036.817-.376 1.441-.874 2.259-.485.83-1.018 1.767-1.746 2.121-.74.366-1.468-.073-2.147 0-.194.012-.364.61-.51.61.012 2.001-.703 3.619-.691 5.62l.352.64-.352.062-.012.256c-.012.171.024.61.012.696-.014.108.002.801-.012.914-.025.192-.423.497-.461.659-.06.256.085.903 0 1.147-.328.988-.037.756-.728 1.513-1.37 1.537-2.933 2.071-5.02 2.047-.157 0-.766.393-.887.369-5.277-.89-10.187-2.06-15.451-3l-4.296-.466h-.344l-.333-.902h-.827l-.753.439c-.958-.305-1.795-1.341-2.523-1.988-1.443-1.27-2.377-1.23-2.462-3.159-.024-.549 0-2.15 0-2.504l.403-1.514v-2.519c.085-3.417-.018-6.79.41-7.254.285-.31.7-.07 1.245.72.177.677.439 1.439.404 2.358-.05 1.334-.455 2.998-.404 5.195l.722 2.233-.318.781.354.683c.012.11.012.22.025.318.109.854 1.623 2.71 2.29 3.234.328.269-.11.598.267.696l.861.732h.983l.9.084 3.66-.084c2.62.397 6.177 1.805 8.729 1.988 2.552.183 4.34 1.087 6.858 1.513l1.223-.975c.789-.025 1.54-.39 2.087-.977.29-.305.679.022.812-.368.037-.098-.121-.913-.085-1.01.025-.098.522-.014.546-.087.012-.11.428-.792.44-.95l-.9-.098c.023-2.794.448-5.268.46-8.062.012-1.074.461-2.25 1.504-2.237l1.822.526c.254 0 1.004-.55 1.174-.6a1.04 1.04 0 0 0 .352-.17c.06-.049.11.33.133.256.025-.073.524-.708.488-.891-.012-.074-.524-.097-.548-.158-.024-.122.073-.44.06-.488h-.242l-.243-.672.085-1.116-4.145-7.84c-.133-.268.484-.838.484-2.832l-1.082-2.281c0-1.16.304-2.575.158-3.673-.242-2.172-1.099-3.917-1.972-5.918-.752-1.453-.696-2.926-1.727-4.183-1.031-1.257-2.873-3.054-4.122-4.079l-1.689-1.134c-.327-.244-1.247-.367-1.587-.587-.34-.232-.004-.415-.344-.61-.34-.183.693-.23-1.402-1.11h-1.444c-.364-.159-.503-.59-.88-.724-.751-.28-1.902-.37-2.678-.578-1.54-.403-2.15-.967-3.727-1.016l-.582-.012h-.534c-.024 0-.309.211-.854.634-1.431 0-1.807-.72-2.195-.634h-2.305c-2.76.495-4.958 1.321-7.202 2.807zm-6.536 7.41a57.173 57.173 0 0 0-1.155 1.898c.175.335-.033.39.545.632.172.072.502-.151.837-.004-.123-.43.066-1.023.007-1.518-.041-.348-.158-.669-.234-1.008zm24.57-.585c-.112.084-.317-.623-.445-.522-.685.538-2.415 2.973-2.76 3.667-.252.508.112 1.228-.006 1.554.896.114 3.05-.038 4.337-.668 1.339-.655 3.418-3.714 4.676-5.1-.897-.034-3.01.518-3.707.535-.788.02-1.462.058-2.095.534zm-21.268 4.577c.701-.568 2.187.362 2.205-3.702 0-.279.75-.768.855-1.215.352-1.505.067-3.482-.467-4.864-1.371 1.33-3.594 3.405-3.778 4.882-.177 1.43.783 4.084 1.185 4.9zm4.087 11.11c.13-.865.699-3.745.608-4.81-.109-1.285-.927-.739-1.346-1.444-.723-1.218-1.957-2.558-2.762-2.956-.213.88-1.458 3.075-.982 4.422.498 1.408 2.849 3.79 4.482 4.789zm6.28-10.675c.71-.557 2.344-2.635 2.804-3.986.281-.825.512-1.946.013-3.025-.358-.774-1.388-1.484-1.666-2.238-1.401 1.318-2.702 3.363-2.901 4.848-.19 1.414 1.364 3.586 1.75 4.401zm1.158 7.2c.863 1.212 3.315 2.33 5.156 2.842-.244-1.904-.617-3.65-1.696-4.68-.686-.654-1.201-2.3-2.273-2.955-.537-.328-1.82.064-2.118.01.02.53-.074 2.014-.013 2.965.044.677.6 1.332.944 1.817z" opacity=".07"></path><path d="M13.66 5.736c.503.863 1.462 1.185 1.722 2.037.62 2.035-.343 3.638-.924 5.398-.461 1.398-.012 2.676-1.652 4.167.398.072.797.135 1.199.187.531.07 1.02-.232 1.551-.199.697.044 1.439.41 2.135.395-.495-1.15-.535-2.712-.286-4.563.208-1.554.337-3.052 1.408-4.414.734-.934 1.236-1.785 2.368-2.617l1.788-.956.464 1.928c.482.94 1.468 1.275 1.723 2.167.578 2.03-.193 3.62-.797 5.362-.24.69-.183 1.62-.536 2.155.572-.165.745-.505 1.303-.711.366-.136 1.121-.125 1.481-.278.128-.485.733-1.091 1.059-1.73.475-.93.815-1.944 2.023-2.862 2.107-1.601 4.204-2.175 7.613-1.632l2.287-.01-.5 2.041c-.491 1.503-1.468 1.807-2.335 2.973-1.032 1.388-1.987 2.957-3.281 3.582-2.662 1.285-4.852.3-5.825.025-.37.158-.586-.055-1.051.005-.576.074-1.408.411-1.882.56.27.196.812 1.582 1.07 1.826 1.306 1.231 2.26 1.329 2.693 3.332.205.947.362 2.707.37 3.818l.01 1.533-2.01.009c-2.48-.373-3.713-1.34-5.202-2.59-.559-.468-1.79-1.149-2.205-1.738-1.156-1.646-1.007-3.351-1.061-4.63-.506.024-.5.307-1.008.303-.51-.005-1.534-.297-2.045-.332.073.11.145.223.215.34.917 1.543.79 2.9.66 4.947-.063.964.279 2.435-.016 3.503l-.41 1.48-2.263-.58c-1.271-.578-1.548-2.108-2.452-2.867-1.331-1.117-2.357-1.619-2.873-3.107-.705-2.026-.309-3.928.022-5.175-1.072-.377-1.955-.367-2.392-.541-.63-.252-.743-.604-1.56-1.4a3.567 3.567 0 0 0-.025.085v1.426c-.133.379-.64 1.158-.713 1.548v1.199l-.146.585-.718.487v1.197c-.012.098.39.5.379.61l-.379.797c-.521 6.48 3.022 12.821 7.752 17.129.473.427 1.153 1.049 1.153 1.732.003.55-.461 1.884-.51 2.38-.146 1.46-.01 1.94 0 3.526.006.804.49 1.723.51 2.758.014.708-.671 2.033-.79 2.306-.594 1.33-.812-1.896-1.188-4.471-.34-2.282-.62-3.582-.862-6.12-.997-.781-2.266-2.335-3.054-3.43-1.331-1.847-2.02-3.457-3.01-5.626-.801-1.757-1.99-3.061-2.33-5.026-.17-.988.218-1.451.17-2.464l-.037-.757v-.463l.012-.354L0 23.99c.097-1.45.735-2.654 1.068-4.054.457-1.922.71-4.01 1.588-5.769C4.173 11.117 7 8.273 9.583 6.04c2.583-2.245 4.936-3.855 8.2-4.905 3.119-1 4.838-.999 8.1-.77.163.01 1.914-.38 2.076-.365 1.577.135 2.455.88 3.985 1.318.129.037 1.073-.04 1.201 0 .825.244.48-.33 1.281 0 .194.085.4.158.595.256l.29.134.861 1.21 1.055.536c.34.159 1.273-.11 1.649.11.376.231.8.45 1.14.707l1.068 1.27c.351.256.679.537 1.018.805.34.269.668.024.983.329.315.293.643.586.946.89.594.635 1.2 1.258 1.735 1.953.79.962 2.042 1.884 2.678 2.957 1.14 1.922 1.49 4.103 2.113 6.256.473 1.684.764 3.404.897 5.137.049.427-.448 1.098-.436 1.538.012.427.012.768 0 1.147l.46 2.281.013.647 3.157 6.81 1.161 1.231-.205 1.123.206.403.146.305c.12.305.823.232.884.573.097.354.146.757.158 1.16.036.817-.376 1.441-.874 2.259-.485.83-1.018 1.767-1.746 2.121-.74.366-1.468-.073-2.147 0-.194.012-.364.61-.51.61.012 2.001-.703 3.619-.691 5.62l.352.64-.352.062-.012.256c-.012.171.024.61.012.696-.014.108.002.801-.012.914-.025.192-.423.497-.461.659-.06.256.085.903 0 1.147-.328.988-.037.756-.728 1.513-1.37 1.537-2.933 2.071-5.02 2.047-.157 0-.766.393-.887.369-5.277-.89-10.187-2.06-15.451-3l-4.296-.466h-.344l-.333-.902h-.827l-.753.439c-.958-.305-1.795-1.341-2.523-1.988-1.443-1.27-2.377-1.23-2.462-3.159-.024-.549 0-2.15 0-2.504l.403-1.514v-2.519c.085-3.417-.018-6.79.41-7.254.285-.31.7-.07 1.245.72.177.677.439 1.439.404 2.358-.05 1.334-.455 2.998-.404 5.195l.722 2.233-.318.781.354.683c.012.11.012.22.025.318.109.854 1.623 2.71 2.29 3.234.328.269-.11.598.267.696l.861.732h.983l.9.084 3.66-.084c2.62.397 6.177 1.805 8.729 1.988 2.552.183 4.34 1.087 6.858 1.513l1.223-.975c.789-.025 1.54-.39 2.087-.977.29-.305.679.022.812-.368.037-.098-.121-.913-.085-1.01.025-.098.522-.014.546-.087.012-.11.428-.792.44-.95l-.9-.098c.023-2.794.448-5.268.46-8.062.012-1.074.461-2.25 1.504-2.237l1.822.526c.254 0 1.004-.55 1.174-.6a1.04 1.04 0 0 0 .352-.17c.06-.049.11.33.133.256.025-.073.524-.708.488-.891-.012-.074-.524-.097-.548-.158-.024-.122.073-.44.06-.488h-.242l-.243-.672.085-1.116-4.145-7.84c-.133-.268.484-.838.484-2.832l-1.082-2.281c0-1.16.304-2.575.158-3.673-.242-2.172-1.099-3.917-1.972-5.918-.752-1.453-.696-2.926-1.727-4.183-1.031-1.257-2.873-3.054-4.122-4.079l-1.689-1.134c-.327-.244-1.247-.367-1.587-.587-.34-.232-.004-.415-.344-.61-.34-.183.693-.23-1.402-1.11h-1.444c-.364-.159-.503-.59-.88-.724-.751-.28-1.902-.37-2.678-.578-1.54-.403-2.15-.967-3.727-1.016l-.582-.012h-.534c-.024 0-.309.211-.854.634-1.431 0-1.807-.72-2.195-.634h-2.305c-2.76.495-4.958 1.321-7.202 2.807zm-6.536 7.41a57.173 57.173 0 0 0-1.155 1.898c.175.335-.033.39.545.632.172.072.502-.151.837-.004-.123-.43.066-1.023.007-1.518-.041-.348-.158-.669-.234-1.008zm24.57-.585c-.112.084-.317-.623-.445-.522-.685.538-2.415 2.973-2.76 3.667-.252.508.112 1.228-.006 1.554.896.114 3.05-.038 4.337-.668 1.339-.655 3.418-3.714 4.676-5.1-.897-.034-3.01.518-3.707.535-.788.02-1.462.058-2.095.534zm-21.268 4.577c.701-.568 2.187.362 2.205-3.702 0-.279.75-.768.855-1.215.352-1.505.067-3.482-.467-4.864-1.371 1.33-3.594 3.405-3.778 4.882-.177 1.43.783 4.084 1.185 4.9zm4.087 11.11c.13-.865.699-3.745.608-4.81-.109-1.285-.927-.739-1.346-1.444-.723-1.218-1.957-2.558-2.762-2.956-.213.88-1.458 3.075-.982 4.422.498 1.408 2.849 3.79 4.482 4.789zm6.28-10.675c.71-.557 2.344-2.635 2.804-3.986.281-.825.512-1.946.013-3.025-.358-.774-1.388-1.484-1.666-2.238-1.401 1.318-2.702 3.363-2.901 4.848-.19 1.414 1.364 3.586 1.75 4.401zm1.158 7.2c.863 1.212 3.315 2.33 5.156 2.842-.244-1.904-.617-3.65-1.696-4.68-.686-.654-1.201-2.3-2.273-2.955-.537-.328-1.82.064-2.118.01.02.53-.074 2.014-.013 2.965.044.677.6 1.332.944 1.817z"></path></symbol><symbol viewBox="0 0 100 24" id="icon-caesarapp-logo-white"><g fill="none" fill-rule="evenodd"><path fill="#FFF" d="M68.468 0H100v24H68.468z"></path><mask id="caesarapp-logo-white-b" fill="#fff"><use xlink:href="#caesarapp-logo-white-a"></use></mask><use fill="#FFF" xlink:href="#caesarapp-logo-white-a"></use><path fill="#005EE0" d="M68.468 0h34.054v24H68.468z" mask="url(#caesarapp-logo-white-b)"></path></g></symbol><symbol viewBox="0 0 555 133" id="icon-caesarapp-logo"><g fill="none" fill-rule="evenodd"><path fill="#005EE0" d="M380 0h175v133H380z"></path><mask id="caesarapp-logo-b" fill="#fff"><use xlink:href="#caesarapp-logo-a"></use></mask><use fill="#005EE0" xlink:href="#caesarapp-logo-a"></use><path fill="#FFF" d="M380 0h189v133H380z" mask="url(#caesarapp-logo-b)"></path></g></symbol><symbol viewBox="0 0 17 20" id="icon-download"><path d="M.304 18.983c.745.459 1.652.66 2.577.713 2.222.129 4.44.325 6.674.178.276.018.552.036.828.049 1.753.076 3.506.098 5.25-.085.496-.053.908-.258.873-.659-.035-.37-.386-.64-.894-.68-.916-.081-1.837-.166-2.757-.157-1.477.018-2.95.107-4.426.165-2.643-.512-5.347-.218-8.024-.325-.119-.005-.307.151-.364.258-.118.218.035.405.263.543zm11.725-9.119c.324-.258.71-.356.968-.049.237.281.22.682-.048 1.016-.482.596-.96 1.202-1.503 1.74-.872.865-1.797 1.675-2.7 2.512-.026.045-.052.085-.079.13a.452.452 0 0 1-.63.142l-.211-.138C5.99 14.01 4.64 12.242 3.04 10.764c-.074-.067-.074-.29-.03-.4.083-.223.298-.264.53-.228.754.12 1.185.357 1.839.592.828.297 1.062.521 2.232.271a21.727 21.727 0 0 1-.087-1.923c.017-1.434.105-.868.162-2.302-.504-2.569-.215-3.382-.32-5.983-.004-.115.149-.298.254-.356.215-.111.394.036.53.254.452.726.649 1.607.702 2.502.127 2.16.32 2.501.175 4.67.017.267.035.539.048.806.057 1.353.083.711 0 2.06 1.198-.59 1.876-.008 2.954-.863z" fill="#005EE0"></path></symbol><symbol viewBox="0 0 26 20" id="icon-upload"><path d="M21.093 6.283c-.116-.694-.696-1.413-1.173-2.15-.656-1.014-1.307-2.021-2.03-2.682C16.503.18 15.563.02 13.685.02c-1.45 0-2.683.646-3.894 1.43-1.008.65-2.026 1.301-2.618 2.336a4.304 4.304 0 0 0-.789-.075c-.855 0-1.62.51-2.278.958-1.088.74-1.834 1.742-1.834 3.154 0 .293.032.576.085.853-.961.7-1.33 1.815-1.708 2.922C.451 12.181 0 12.661 0 13.291c0 .403-.08.787 0 1.178.213 1.044.823 2.044 1.552 2.87.436.492.874.585 1.41.897.73.425 1.594.987 2.43 1.033.016 0 1.11-.248 1.781-.248.572 0 1.521.083 2.848.248.4 0 .325-.325.325-.725 0-.4.075-.715-.325-.715-1.117-.124-2.026-.187-2.725-.187-.315 0-.929.063-1.84.187-.588-.036-1.133-.407-1.744-.677-.732-.323-1.507-.592-1.893-1.186-.488-.75-.267-1.722-.267-2.675 0-1.51.104-2.883 1.41-3.646.304-.176 1.261-.637 1.144-.968-.107-.288-.394-.538-.394-.864 0-.678.382-1.183.801-1.763.49-.678 1.078-1.38 1.871-1.38.315 0 .624.525.912.631a.723.723 0 0 0 .901-.368c.283-.6.67-.922 1.117-1.407.496-.539 1.069-1.222 1.708-1.537.819-.402 1.726-.538 2.669-.538 1.177 0 2.23.196 3.01.802.481.373.764 1.01 1.19 1.534.727.897 1.724 1.912 1.842 3.146.032.326 1.04.827 1.36.88 1.11.19 1.17.804 1.903 1.625.832.933 1.5 1.903 1.5 3.234 0 .652.025 1.59-.299 2.14-.38.65-1.153.893-1.667 1.407-.825.824-1.496 1.513-2.69 1.605-.973.275-1.703.412-2.19.412-.387 0-.967-.137-1.74-.412-.4 0-.72.32-.72.72 0 .4.32.72.72.72h3.957c1.05-.072 1.811-.92 2.663-1.435.538-.325 1.23-.194 1.667-.677.552-.607 1.078-1.11 1.372-1.851.305-.772.367-1.786.367-2.629-.002-.93-.68-1.753-1.005-2.607-.425-1.119-.605-2.215-1.527-2.905-.64-.48-1.52-.67-2.31-.877z"></path><path d="M10.086 11.61c.474-.37.956-.737 1.373-1.167.349-.357.68-.727 1.008-1.106-.06.602-.117 1.21-.108 1.812.017 1.175.103 2.35.16 3.53-.496 2.109-.212 1.865-.315 3.996-.004.094.146.245.25.292.21.095.387-.03.52-.206.444-.594.638-.117.69-.853.124-1.77.313-2.338.171-4.12.018-.22.035-.44.048-.659.056-1.098.082-2.19.004-3.284.71.753 1.498 1.437 2.182 2.208.052.056.246.039.345-.009.202-.094.258-.292.25-.49-.03-.659-.31-1.214-.698-1.675-.753-.895-1.476-1.82-2.32-2.634l-.022-.022a.802.802 0 0 0-1.132.022 11.04 11.04 0 0 0-.563.633c-.138.116-.28.228-.414.348-.856.758-1.683 1.55-2.358 2.48-.194.262-.241.594.051.852.267.232.611.258.878.052z"></path></symbol></svg>