<svg xmlns="http://www.w3.org/2000/svg" width="32" height="32" viewBox="0 0 32 32">
    <g fill="none" fill-rule="evenodd">
        <path fill="#BD1622" d="M0 15.386h15.386V0H0zM16.554 15.386H31.94V0H16.554zM0 31.94h15.386V16.553H0zM16.554 31.94H31.94V16.553H16.554z"/>
        <path fill="#FEFEFE" d="M5.584 8.814l2.371-3.598v3.598H5.584zm2.371 2.967h1.367v-1.764h1.04V8.814h-1.04V3.989h-1.88L4.24 8.919v1.098h3.715v1.764zM25.143 7.774l2.734-3.785h-1.648l-1.997 2.862-2.01-2.862h-1.635l2.745 3.797-2.92 3.995h1.635l2.185-3.05 2.184 3.05h1.636zM11.232 20.342H9.585l-1.998 2.862-2.01-2.862H3.943l2.746 3.796-2.92 3.995h1.635l2.184-3.049 2.185 3.05h1.635l-2.909-4.007zM23.554 28.133h1.367v-7.791h-1.367z"/>
    </g>
</svg>
