<svg xmlns="http://www.w3.org/2000/svg" width="11" height="16" viewBox="0 0 11 16">
    <path fill="#FFF" fill-rule="nonzero" d="M9.029 9.864c.348-.175.71-.356.968-.049.237.281.22.682-.048 1.016-.482.596-.96 1.202-1.503 1.74-.872.865-1.797 1.675-2.7 2.512-.026.045-.052.085-.079.13a.452.452 0 0 1-.63.142l-.211-.138C2.99 14.01 1.64 12.242.04 10.764c-.074-.067-.074-.29-.03-.4.083-.223.298-.264.53-.228.754.12 1.226.228 1.891.38 1.37.315 1.501-.145 2.18.483a21.727 21.727 0 0 1-.087-1.923c.017-1.434.105-.868.162-2.302-.504-2.569-.215-3.382-.32-5.983-.004-.115.149-.298.254-.356.215-.111.394.036.53.254.452.726.649 1.607.702 2.502.127 2.16.32 2.501.175 4.67.017.267.035.539.048.806.057 1.353.083.711 0 2.06 1.21-.21 1.662-.21 2.954-.863z"/>
</svg>
