<svg xmlns="http://www.w3.org/2000/svg" xmlns:xlink="http://www.w3.org/1999/xlink" width="100" height="24" viewBox="0 0 100 24">
    <defs>
        <path id="a" d="M11.13 12.376l.02.06c.026 1.454-.445 2.636-1.414 3.547-.969.912-2.281 1.367-3.936 1.367-1.676 0-3.037-.564-4.085-1.692C.667 14.529.144 13.087.144 11.33V8.597c0-1.75.517-3.193 1.552-4.327C2.73 3.135 4.076 2.567 5.73 2.567c1.694 0 3.03.446 4.005 1.337.976.892 1.45 2.09 1.424 3.597l-.02.06H8.825c0-.967-.262-1.72-.784-2.26-.522-.54-1.292-.81-2.31-.81-.98 0-1.756.389-2.33 1.165-.576.776-.863 1.75-.863 2.921v2.753c0 1.185.294 2.165.882 2.941.588.776 1.381 1.165 2.38 1.165.991 0 1.744-.267 2.256-.8.512-.533.769-1.286.769-2.26h2.305zm8.474 4.767a8.86 8.86 0 0 1-.211-.79 5.652 5.652 0 0 1-.114-.77c-.328.5-.76.92-1.295 1.259a3.293 3.293 0 0 1-1.799.508c-1.11 0-1.962-.286-2.557-.858-.594-.573-.892-1.359-.892-2.359 0-1.033.408-1.837 1.222-2.413.815-.576 1.961-.863 3.44-.863h1.862v-.938c0-.559-.165-.997-.493-1.312-.329-.316-.798-.474-1.41-.474-.544 0-.978.132-1.3.395a1.253 1.253 0 0 0-.483 1.016H13.27l-.01-.059c-.046-.842.33-1.589 1.128-2.24.798-.651 1.838-.977 3.119-.977 1.241 0 2.243.316 3.005.947.762.632 1.143 1.54 1.143 2.724v4.747c0 .44.03.863.089 1.268.059.404.154.8.285 1.189h-2.424zm-2.936-1.717c.604 0 1.148-.152 1.63-.454.484-.303.804-.648.962-1.036v-1.58h-1.902c-.696 0-1.242.173-1.636.519-.394.345-.591.751-.591 1.219 0 .407.133.731.399.972.266.24.645.36 1.138.36zm12.07 1.924c-1.51 0-2.714-.495-3.61-1.485-.897-.99-1.346-2.262-1.346-3.814v-.395c0-1.553.445-2.84 1.336-3.863.89-1.024 2.005-1.532 3.345-1.525 1.438 0 2.54.436 3.306 1.307.765.872 1.148 2.042 1.148 3.509v1.41h-6.652l-.02.05c.04.849.288 1.543.745 2.082.456.54 1.089.81 1.897.81.643 0 1.195-.08 1.655-.237a5.42 5.42 0 0 0 1.33-.681l.769 1.569c-.4.355-.933.655-1.597.898-.663.243-1.432.365-2.305.365zm-.275-9.158c-.591 0-1.077.235-1.458.706-.382.47-.618 1.067-.71 1.79l.02.05h4.227v-.246c0-.678-.172-1.23-.517-1.658-.345-.428-.866-.642-1.562-.642zm12.376 6.05c0-.369-.158-.675-.473-.918-.315-.244-.903-.457-1.764-.642-1.274-.27-2.238-.653-2.892-1.15-.653-.496-.98-1.172-.98-2.027 0-.895.377-1.658 1.133-2.29.755-.631 1.75-.947 2.986-.947 1.3 0 2.333.32 3.098.962.766.641 1.132 1.436 1.1 2.383l-.02.06H40.73c0-.441-.168-.82-.503-1.135-.335-.316-.795-.474-1.38-.474-.578 0-1.018.13-1.32.39-.302.26-.453.577-.453.952s.143.673.429.893c.285.22.865.416 1.739.587 1.34.277 2.333.666 2.98 1.17.647.503.971 1.189.971 2.057 0 .96-.396 1.74-1.187 2.34-.792.598-1.835.897-3.129.897-1.386 0-2.48-.355-3.281-1.066-.802-.71-1.183-1.526-1.143-2.447l.02-.06H36.7c.027.62.25 1.07.67 1.353.42.283.933.424 1.538.424.617 0 1.093-.118 1.428-.355.335-.237.503-.556.503-.957zm10.918 2.9a8.86 8.86 0 0 1-.212-.789 5.652 5.652 0 0 1-.113-.77c-.329.5-.76.92-1.296 1.259a3.293 3.293 0 0 1-1.798.508c-1.11 0-1.963-.286-2.557-.858-.595-.573-.892-1.359-.892-2.359 0-1.033.407-1.837 1.222-2.413.814-.576 1.96-.863 3.439-.863h1.862v-.938c0-.559-.164-.997-.493-1.312-.328-.316-.798-.474-1.409-.474-.545 0-.979.132-1.3.395a1.253 1.253 0 0 0-.483 1.016H45.42l-.01-.059c-.046-.842.33-1.589 1.128-2.24.798-.651 1.838-.977 3.119-.977 1.241 0 2.243.316 3.005.947.762.632 1.143 1.54 1.143 2.724v4.747c0 .44.03.863.089 1.268.06.404.154.8.286 1.189h-2.424zm-2.937-1.716c.605 0 1.148-.152 1.631-.454.483-.303.803-.648.96-1.036v-1.58h-1.9c-.697 0-1.242.173-1.637.519-.394.345-.59.751-.59 1.219 0 .407.132.731.398.972.266.24.646.36 1.138.36zm12.81-6.8l-1.025-.04c-.466 0-.855.1-1.167.297a1.949 1.949 0 0 0-.725.839v7.42H56.32V6.466h2.187l.158 1.55c.27-.546.616-.974 1.04-1.283.423-.31.911-.464 1.463-.464.144 0 .28.011.404.034.125.023.24.051.345.084l-.286 2.24zm9.755 5.162H65.77l-1.143 3.355h-2.424l5.271-14.369h2.267l5.212 14.369h-2.434l-1.133-3.355zm-4.927-2.004h4.247l-2.079-6.138h-.059l-2.109 6.138zm19.195.375c0 1.553-.364 2.806-1.094 3.76-.729.954-1.744 1.431-3.044 1.431-.605 0-1.14-.108-1.606-.326a3.306 3.306 0 0 1-1.203-.957v5.181h-2.394V6.465h2.02l.236 1.342c.342-.5.754-.881 1.237-1.144.483-.264 1.043-.395 1.68-.395 1.314 0 2.337.521 3.07 1.564.732 1.043 1.098 2.416 1.098 4.12v.207zm-2.384-.207c0-1.092-.206-1.985-.616-2.68-.41-.693-1.023-1.04-1.838-1.04-.5 0-.923.107-1.271.32a2.36 2.36 0 0 0-.838.893v4.826c.21.375.49.663.838.864.348.2.778.3 1.29.3.815 0 1.425-.3 1.829-.902.404-.602.606-1.393.606-2.374v-.207zm13.814.207c0 1.553-.364 2.806-1.093 3.76-.73.954-1.744 1.431-3.045 1.431-.605 0-1.14-.108-1.606-.326a3.306 3.306 0 0 1-1.202-.957v5.181h-2.395V6.465h2.02L90 7.807c.341-.5.753-.881 1.236-1.144.483-.264 1.043-.395 1.68-.395 1.314 0 2.337.521 3.07 1.564.732 1.043 1.098 2.416 1.098 4.12v.207zm-2.384-.207c0-1.092-.206-1.985-.616-2.68-.41-.693-1.023-1.04-1.838-1.04-.499 0-.923.107-1.27.32a2.36 2.36 0 0 0-.838.893v4.826c.21.375.489.663.837.864.348.2.779.3 1.29.3.815 0 1.425-.3 1.829-.902.404-.602.606-1.393.606-2.374v-.207z"/>
    </defs>
    <g fill="none" fill-rule="evenodd">
        <path fill="#FFF" d="M68.468 0H100v24H68.468z"/>
        <mask id="b" fill="#fff">
            <use xlink:href="#a"/>
        </mask>
        <use fill="#FFF" xlink:href="#a"/>
        <path fill="#005EE0" d="M68.468 0h34.054v24H68.468z" mask="url(#b)"/>
    </g>
</svg>
