<svg xmlns="http://www.w3.org/2000/svg" xmlns:xlink="http://www.w3.org/1999/xlink" width="100" height="24" viewBox="0 0 100 24"><defs><path id="a" d="M11.13 12.376l.02.06c.026 1.454-.445 2.636-1.414 3.547-.97.912-2.28 1.367-3.936 1.367-1.676 0-3.037-.564-4.085-1.692-1.048-1.13-1.57-2.57-1.57-4.328V8.597c0-1.75.516-3.193 1.55-4.327C2.73 3.135 4.076 2.567 5.73 2.567c1.694 0 3.03.446 4.005 1.337.976.892 1.45 2.09 1.424 3.597l-.02.06H8.824c0-.966-.262-1.72-.784-2.26-.52-.54-1.29-.81-2.31-.81-.98 0-1.755.39-2.33 1.166-.575.776-.862 1.75-.862 2.92v2.754c0 1.185.294 2.165.882 2.94.588.777 1.38 1.166 2.38 1.166.99 0 1.744-.267 2.256-.8.512-.533.77-1.286.77-2.26h2.304zm8.474 4.767a8.86 8.86 0 0 1-.21-.79 5.652 5.652 0 0 1-.115-.77c-.33.5-.76.92-1.296 1.26a3.293 3.293 0 0 1-1.8.507c-1.11 0-1.96-.286-2.556-.858-.594-.573-.892-1.36-.892-2.36 0-1.032.408-1.836 1.222-2.412.815-.576 1.96-.863 3.44-.863h1.862V9.92c0-.56-.165-.998-.493-1.313-.33-.316-.798-.474-1.41-.474-.544 0-.978.132-1.3.395a1.253 1.253 0 0 0-.483 1.016H13.27l-.01-.06c-.046-.84.33-1.588 1.128-2.24.798-.65 1.838-.976 3.12-.976 1.24 0 2.242.316 3.004.947.762.632 1.143 1.54 1.143 2.724v4.746c0 .44.03.863.09 1.268.058.404.153.8.284 1.19h-2.425zm-2.936-1.717c.604 0 1.148-.152 1.63-.454.484-.303.804-.648.962-1.036v-1.58h-1.902c-.696 0-1.242.173-1.636.52-.394.344-.59.75-.59 1.218 0 .407.132.73.398.972.266.24.645.36 1.138.36zm12.07 1.924c-1.51 0-2.714-.495-3.61-1.485-.897-.99-1.346-2.262-1.346-3.814v-.394c0-1.553.445-2.84 1.336-3.863.89-1.024 2.005-1.532 3.345-1.525 1.438 0 2.54.436 3.306 1.307.764.872 1.147 2.042 1.147 3.51v1.41h-6.652l-.02.05c.04.848.288 1.542.745 2.08.456.54 1.09.81 1.897.81.643 0 1.195-.08 1.655-.236a5.42 5.42 0 0 0 1.33-.682l.77 1.57c-.4.354-.934.654-1.598.897-.663.243-1.432.365-2.305.365zm-.275-9.158c-.59 0-1.077.235-1.458.706-.382.47-.618 1.067-.71 1.79l.02.05h4.227v-.246c0-.678-.172-1.23-.517-1.658-.345-.428-.866-.642-1.562-.642zm12.376 6.05c0-.37-.16-.675-.474-.918-.315-.244-.903-.457-1.764-.642-1.274-.27-2.238-.653-2.892-1.15-.653-.496-.98-1.172-.98-2.027 0-.895.377-1.658 1.133-2.29.755-.63 1.75-.947 2.986-.947 1.3 0 2.332.32 3.097.962.766.64 1.132 1.436 1.1 2.383l-.02.06H40.73c0-.44-.168-.82-.503-1.135-.335-.316-.795-.474-1.38-.474-.578 0-1.018.13-1.32.39-.302.26-.453.577-.453.952s.143.673.43.893c.284.22.864.415 1.738.586 1.34.277 2.333.666 2.98 1.17.647.503.97 1.19.97 2.057 0 .96-.395 1.74-1.186 2.34-.792.598-1.835.897-3.13.897-1.385 0-2.48-.355-3.28-1.066-.802-.71-1.183-1.526-1.143-2.447l.02-.06H36.7c.027.62.25 1.07.67 1.353.42.283.933.424 1.538.424.617 0 1.093-.118 1.428-.355.335-.238.503-.557.503-.958zm10.917 2.9a8.86 8.86 0 0 1-.212-.79 5.652 5.652 0 0 1-.113-.77c-.33.5-.76.92-1.296 1.26a3.293 3.293 0 0 1-1.798.508c-1.11 0-1.963-.286-2.557-.858-.594-.573-.89-1.36-.89-2.36 0-1.032.406-1.836 1.22-2.412.815-.576 1.96-.863 3.44-.863h1.862V9.92c0-.56-.164-.998-.493-1.313-.33-.316-.8-.474-1.41-.474-.545 0-.98.132-1.3.395a1.253 1.253 0 0 0-.483 1.016H45.42l-.01-.06c-.046-.84.33-1.588 1.128-2.24.798-.65 1.838-.976 3.12-.976 1.24 0 2.242.316 3.004.947.762.632 1.143 1.54 1.143 2.724v4.746c0 .44.03.863.09 1.268.06.404.153.8.285 1.19h-2.424zm-2.937-1.716c.605 0 1.148-.152 1.63-.454.484-.303.804-.648.96-1.036v-1.58h-1.9c-.696 0-1.24.173-1.636.52-.394.344-.59.75-.59 1.218 0 .407.132.73.398.972.266.24.646.36 1.138.36zm12.81-6.8l-1.025-.04c-.466 0-.855.1-1.167.297a1.95 1.95 0 0 0-.725.84v7.42H56.32V6.465h2.187l.158 1.55c.27-.546.616-.974 1.04-1.283.423-.31.91-.464 1.463-.464.144 0 .28.01.404.033.125.023.24.05.345.084l-.286 2.24zm9.755 5.162H65.77l-1.143 3.355h-2.424l5.27-14.37h2.268l5.213 14.37H72.52l-1.134-3.355zm-4.927-2.004h4.247l-2.08-6.138h-.058l-2.11 6.138zm19.195.375c0 1.552-.364 2.805-1.094 3.76-.73.953-1.745 1.43-3.045 1.43-.605 0-1.14-.108-1.606-.326a3.306 3.306 0 0 1-1.204-.957v5.18h-2.394V6.466h2.02l.236 1.342c.342-.5.754-.88 1.237-1.144.483-.264 1.043-.395 1.68-.395 1.314 0 2.337.52 3.07 1.564.732 1.043 1.098 2.416 1.098 4.12v.207zm-2.384-.208c0-1.092-.207-1.985-.617-2.68-.41-.693-1.023-1.04-1.838-1.04-.5 0-.923.107-1.27.32a2.36 2.36 0 0 0-.84.893v4.826c.21.376.49.664.84.865.347.2.777.3 1.29.3.814 0 1.424-.3 1.828-.902.404-.602.606-1.393.606-2.374v-.208zm13.813.207c0 1.552-.364 2.805-1.093 3.76-.73.953-1.744 1.43-3.045 1.43-.605 0-1.14-.108-1.606-.326a3.306 3.306 0 0 1-1.203-.957v5.18h-2.395V6.466h2.02L90 7.807c.34-.5.753-.88 1.236-1.144.483-.264 1.043-.395 1.68-.395 1.314 0 2.337.52 3.07 1.564.732 1.043 1.098 2.416 1.098 4.12v.207zM94.7 11.95c0-1.092-.207-1.985-.617-2.68-.41-.693-1.023-1.04-1.838-1.04-.5 0-.923.107-1.27.32a2.36 2.36 0 0 0-.838.893v4.826c.21.376.49.664.837.865.348.2.78.3 1.29.3.815 0 1.425-.3 1.83-.902.403-.602.605-1.393.605-2.374v-.208z"/></defs><g fill="none" fill-rule="evenodd"><path fill="#FFF" d="M68.468 0H100v24H68.468z"/><mask id="b" fill="#fff"><use xlink:href="#a"/></mask><use fill="#FFF" xlink:href="#a"/><path fill="#005EE0" d="M68.468 0h34.054v24H68.468z" mask="url(#b)"/></g></svg>
