<svg xmlns="http://www.w3.org/2000/svg" xmlns:xlink="http://www.w3.org/1999/xlink" width="555" height="133" viewBox="0 0 555 133"><defs><path id="a" d="M61.773 68.586l.11.328c.146 8.057-2.47 14.61-7.848 19.66-5.377 5.05-12.66 7.574-21.847 7.574-9.297 0-16.853-3.126-22.668-9.378C3.704 80.517.797 72.523.797 62.79V47.64c0-9.697 2.87-17.69 8.613-23.98 5.742-6.29 13.207-9.433 22.395-9.433 9.406 0 16.816 2.47 22.23 7.41 5.414 4.94 8.048 11.584 7.903 19.933l-.11.328h-12.85c0-5.36-1.45-9.533-4.35-12.523-2.898-2.99-7.172-4.484-12.823-4.484-5.433 0-9.744 2.15-12.934 6.454-3.19 4.302-4.784 9.698-4.784 16.187v15.26c0 6.563 1.63 11.995 4.894 16.297 3.264 4.302 7.666 6.453 13.207 6.453 5.506 0 9.68-1.476 12.524-4.43 2.845-2.953 4.267-7.127 4.267-12.523h12.796zM108.805 95a49.043 49.043 0 0 1-1.176-4.375 31.275 31.275 0 0 1-.63-4.266c-1.823 2.77-4.22 5.094-7.19 6.972-2.973 1.878-6.3 2.816-9.98 2.816-6.163 0-10.894-1.585-14.193-4.757-3.3-3.17-4.95-7.528-4.95-13.07 0-5.724 2.26-10.18 6.782-13.37 4.52-3.19 10.882-4.786 19.085-4.786h10.336V54.97c0-3.1-.91-5.524-2.734-7.274s-4.43-2.625-7.82-2.625c-3.026 0-5.432.73-7.22 2.19-1.785 1.457-2.68 3.335-2.68 5.632H73.643l-.055-.328c-.255-4.667 1.832-8.805 6.262-12.415 4.43-3.61 10.198-5.415 17.307-5.415 6.89 0 12.45 1.75 16.68 5.25s6.344 8.532 6.344 15.094v26.304c0 2.443.165 4.785.493 7.027A37.315 37.315 0 0 0 122.26 95h-13.454zm-16.297-9.516c3.354 0 6.37-.838 9.05-2.515 2.68-1.678 4.458-3.592 5.333-5.743v-8.75H96.337c-3.865 0-6.89.957-9.078 2.87-2.188 1.915-3.28 4.166-3.28 6.755 0 2.26.737 4.056 2.213 5.386 1.478 1.33 3.583 1.996 6.318 1.996zM159.5 96.148c-8.385 0-15.066-2.743-20.043-8.23-4.977-5.487-7.465-12.533-7.465-21.137v-2.186c0-8.604 2.47-15.74 7.41-21.41 4.94-5.67 11.13-8.486 18.567-8.45 7.983 0 14.1 2.416 18.346 7.246 4.248 4.83 6.37 11.312 6.37 19.442v7.82h-36.913l-.11.274c.22 4.703 1.596 8.55 4.13 11.54 2.534 2.99 6.043 4.483 10.527 4.483 3.573 0 6.636-.438 9.188-1.313 2.552-.875 5.013-2.133 7.383-3.774l4.266 8.695c-2.224 1.97-5.177 3.628-8.86 4.977-3.68 1.35-7.947 2.023-12.796 2.023zm-1.53-50.75c-3.283 0-5.98 1.304-8.095 3.91-2.115 2.607-3.427 5.916-3.938 9.926l.11.274h23.46V58.14c0-3.756-.956-6.818-2.87-9.188-1.914-2.37-4.804-3.555-8.668-3.555zm68.686 33.524c0-2.042-.875-3.737-2.625-5.086-1.75-1.35-5.012-2.534-9.788-3.555-7.073-1.494-12.423-3.617-16.05-6.37-3.628-2.752-5.442-6.5-5.442-11.24 0-4.956 2.096-9.186 6.29-12.686 4.192-3.5 9.715-5.25 16.57-5.25 7.218 0 12.95 1.778 17.2 5.332 4.246 3.555 6.28 7.957 6.096 13.207l-.11.33h-12.74c0-2.444-.93-4.54-2.79-6.29-1.86-1.75-4.41-2.625-7.657-2.625-3.21 0-5.65.72-7.33 2.16-1.676 1.44-2.514 3.2-2.514 5.277 0 2.078.793 3.728 2.38 4.95 1.584 1.22 4.802 2.305 9.65 3.253 7.438 1.53 12.953 3.692 16.544 6.48 3.59 2.79 5.387 6.59 5.387 11.403 0 5.324-2.197 9.644-6.59 12.96-4.394 3.32-10.18 4.978-17.364 4.978-7.692 0-13.763-1.968-18.21-5.906-4.448-3.937-6.563-8.458-6.344-13.562l.11-.328h12.357c.146 3.427 1.386 5.924 3.72 7.492 2.333 1.567 5.176 2.35 8.53 2.35 3.428 0 6.07-.655 7.93-1.967 1.86-1.313 2.79-3.08 2.79-5.305zM287.25 95a49.043 49.043 0 0 1-1.176-4.375 31.275 31.275 0 0 1-.63-4.266c-1.822 2.77-4.22 5.094-7.19 6.972-2.97 1.878-6.298 2.816-9.98 2.816-6.162 0-10.892-1.585-14.192-4.757-3.3-3.17-4.95-7.528-4.95-13.07 0-5.724 2.26-10.18 6.782-13.37 4.52-3.19 10.883-4.786 19.086-4.786h10.336V54.97c0-3.1-.912-5.524-2.734-7.274-1.823-1.75-4.43-2.625-7.82-2.625-3.027 0-5.433.73-7.22 2.19-1.786 1.457-2.68 3.335-2.68 5.632h-12.796l-.055-.328c-.254-4.667 1.833-8.805 6.263-12.415 4.43-3.61 10.2-5.415 17.31-5.415 6.89 0 12.45 1.75 16.68 5.25 4.227 3.5 6.342 8.532 6.342 15.094v26.304c0 2.443.164 4.785.492 7.027a37.315 37.315 0 0 0 1.586 6.59H287.25zm-16.297-9.516c3.354 0 6.37-.838 9.05-2.515 2.68-1.678 4.458-3.592 5.333-5.743v-8.75H274.78c-3.864 0-6.89.957-9.078 2.87-2.187 1.915-3.28 4.166-3.28 6.755 0 2.26.737 4.056 2.214 5.386 1.476 1.33 3.582 1.996 6.316 1.996zm71.094-37.68l-5.688-.218c-2.59 0-4.75.547-6.48 1.64-1.733 1.094-3.073 2.644-4.02 4.65V95h-13.29V35.828h12.14l.876 8.586c1.495-3.026 3.418-5.396 5.77-7.11 2.35-1.713 5.058-2.57 8.12-2.57.803 0 1.55.064 2.243.192.69.127 1.33.282 1.913.465l-1.586 12.415zm54.14 28.602h-31.17L358.67 95H345.22l29.257-79.625h12.578L415.985 95h-13.508l-6.29-18.594zm-27.343-11.1h23.57l-11.54-34.017h-.327l-11.703 34.015zm106.53 2.077c0 8.604-2.022 15.55-6.07 20.836-4.046 5.285-9.68 7.93-16.898 7.93-3.354 0-6.325-.603-8.914-1.806-2.588-1.203-4.812-2.972-6.672-5.305v28.71h-13.29V35.828h11.212l1.313 7.438c1.896-2.77 4.183-4.886 6.863-6.344 2.68-1.458 5.788-2.188 9.324-2.188 7.292 0 12.97 2.89 17.035 8.668 4.065 5.78 6.098 13.39 6.098 22.832v1.15zm-13.233-1.15c0-6.05-1.14-11-3.417-14.846-2.28-3.847-5.68-5.77-10.2-5.77-2.77 0-5.122.593-7.054 1.778-1.934 1.184-3.483 2.834-4.65 4.95v26.74c1.167 2.08 2.716 3.674 4.65 4.786 1.93 1.113 4.32 1.67 7.163 1.67 4.52 0 7.902-1.67 10.144-5.005 2.243-3.336 3.364-7.72 3.364-13.152v-1.15zm76.672 1.15c0 8.604-2.023 15.55-6.07 20.836-4.047 5.285-9.68 7.93-16.898 7.93-3.354 0-6.326-.603-8.914-1.806-2.59-1.203-4.813-2.972-6.672-5.305v28.71h-13.29V35.828h11.212l1.312 7.438c1.896-2.77 4.184-4.886 6.863-6.344 2.68-1.458 5.788-2.188 9.325-2.188 7.29 0 12.97 2.89 17.035 8.668 4.065 5.78 6.097 13.39 6.097 22.832v1.15zm-13.234-1.15c0-6.05-1.14-11-3.418-14.846-2.28-3.847-5.678-5.77-10.2-5.77-2.77 0-5.12.593-7.054 1.778-1.932 1.184-3.482 2.834-4.648 4.95v26.74c1.166 2.08 2.716 3.674 4.648 4.786 1.933 1.113 4.32 1.67 7.164 1.67 4.52 0 7.903-1.67 10.145-5.005 2.242-3.336 3.363-7.72 3.363-13.152v-1.15z"/></defs><g fill="none" fill-rule="evenodd"><path fill="#005EE0" d="M380 0h175v133H380z"/><mask id="b" fill="#fff"><use xlink:href="#a"/></mask><use fill="#005EE0" xlink:href="#a"/><path fill="#FFF" d="M380 0h189v133H380z" mask="url(#b)"/></g></svg>
