<svg xmlns="http://www.w3.org/2000/svg" xmlns:xlink="http://www.w3.org/1999/xlink" width="555" height="133" viewBox="0 0 555 133">
    <defs>
        <path id="a" d="M61.773 68.586l.11.328c.146 8.057-2.47 14.61-7.848 19.66-5.377 5.05-12.66 7.574-21.847 7.574-9.297 0-16.853-3.126-22.668-9.378C3.704 80.517.797 72.523.797 62.79V47.64c0-9.697 2.87-17.69 8.613-23.98 5.742-6.289 13.207-9.433 22.395-9.433 9.406 0 16.816 2.47 22.23 7.41 5.414 4.94 8.048 11.584 7.903 19.933l-.11.328H48.977c0-5.359-1.45-9.533-4.348-12.523-2.899-2.99-7.173-4.484-12.824-4.484-5.433 0-9.744 2.15-12.934 6.453-3.19 4.302-4.785 9.698-4.785 16.187V62.79c0 6.563 1.631 11.995 4.894 16.297 3.264 4.302 7.666 6.453 13.207 6.453 5.506 0 9.68-1.476 12.524-4.43 2.844-2.953 4.266-7.127 4.266-12.523h12.796zM108.805 95a49.043 49.043 0 0 1-1.176-4.375 31.275 31.275 0 0 1-.629-4.266c-1.823 2.771-4.22 5.095-7.191 6.973-2.972 1.878-6.299 2.816-9.98 2.816-6.162 0-10.893-1.585-14.192-4.757-3.3-3.172-4.95-7.529-4.95-13.07 0-5.725 2.26-10.182 6.782-13.372 4.52-3.19 10.883-4.785 19.086-4.785h10.336V54.97c0-3.1-.912-5.524-2.735-7.274s-4.43-2.625-7.82-2.625c-3.026 0-5.432.73-7.219 2.188-1.786 1.458-2.68 3.336-2.68 5.633H73.642l-.055-.328c-.255-4.667 1.832-8.805 6.262-12.415 4.43-3.609 10.199-5.414 17.308-5.414 6.89 0 12.45 1.75 16.68 5.25s6.344 8.532 6.344 15.094v26.305c0 2.443.164 4.785.492 7.027a37.315 37.315 0 0 0 1.586 6.59h-13.453zm-16.297-9.516c3.354 0 6.37-.838 9.05-2.515 2.68-1.677 4.458-3.591 5.333-5.742v-8.75H96.336c-3.865 0-6.89.957-9.078 2.87-2.188 1.915-3.281 4.166-3.281 6.755 0 2.26.738 4.056 2.214 5.386 1.477 1.331 3.582 1.996 6.317 1.996zM159.5 96.148c-8.385 0-15.066-2.743-20.043-8.23-4.977-5.487-7.465-12.533-7.465-21.137v-2.187c0-8.604 2.47-15.741 7.41-21.41 4.94-5.67 11.13-8.486 18.567-8.45 7.984 0 14.1 2.416 18.347 7.246 4.248 4.831 6.371 11.312 6.371 19.442v7.82h-36.914l-.109.274c.219 4.703 1.595 8.55 4.129 11.539 2.534 2.99 6.043 4.484 10.527 4.484 3.573 0 6.636-.437 9.188-1.312 2.552-.875 5.013-2.133 7.383-3.774l4.265 8.695c-2.224 1.97-5.177 3.628-8.86 4.977-3.681 1.349-7.947 2.023-12.796 2.023zm-1.531-50.75c-3.282 0-5.98 1.304-8.094 3.91-2.115 2.607-3.427 5.916-3.938 9.926l.11.274h23.46V58.14c0-3.756-.956-6.818-2.87-9.188-1.914-2.37-4.804-3.555-8.668-3.555zm68.687 33.524c0-2.042-.875-3.737-2.625-5.086-1.75-1.349-5.013-2.534-9.789-3.555-7.073-1.495-12.423-3.618-16.05-6.37-3.628-2.753-5.442-6.5-5.442-11.24 0-4.957 2.096-9.187 6.29-12.687 4.192-3.5 9.715-5.25 16.57-5.25 7.218 0 12.951 1.778 17.199 5.332 4.247 3.555 6.28 7.957 6.097 13.207l-.11.329h-12.741c0-2.443-.93-4.54-2.79-6.29-1.859-1.75-4.41-2.624-7.656-2.624-3.208 0-5.65.72-7.328 2.16-1.677 1.44-2.515 3.199-2.515 5.277 0 2.078.793 3.728 2.379 4.95 1.585 1.22 4.803 2.305 9.652 3.253 7.437 1.531 12.952 3.692 16.543 6.48 3.591 2.79 5.387 6.59 5.387 11.403 0 5.323-2.197 9.643-6.59 12.96-4.394 3.319-10.181 4.977-17.364 4.977-7.692 0-13.763-1.968-18.21-5.906-4.448-3.937-6.563-8.458-6.344-13.562l.11-.328h12.358c.146 3.427 1.386 5.924 3.72 7.492 2.333 1.567 5.176 2.351 8.53 2.351 3.428 0 6.07-.656 7.93-1.968 1.86-1.313 2.79-3.081 2.79-5.305zM287.25 95a49.043 49.043 0 0 1-1.176-4.375 31.275 31.275 0 0 1-.629-4.266c-1.823 2.771-4.22 5.095-7.191 6.973-2.971 1.878-6.298 2.816-9.98 2.816-6.162 0-10.892-1.585-14.192-4.757-3.3-3.172-4.95-7.529-4.95-13.07 0-5.725 2.261-10.182 6.782-13.372 4.52-3.19 10.883-4.785 19.086-4.785h10.336V54.97c0-3.1-.912-5.524-2.734-7.274-1.823-1.75-4.43-2.625-7.82-2.625-3.027 0-5.433.73-7.22 2.188-1.786 1.458-2.68 3.336-2.68 5.633h-12.796l-.055-.328c-.255-4.667 1.832-8.805 6.262-12.415 4.43-3.609 10.2-5.414 17.309-5.414 6.89 0 12.45 1.75 16.68 5.25 4.228 3.5 6.343 8.532 6.343 15.094v26.305c0 2.443.164 4.785.492 7.027a37.315 37.315 0 0 0 1.586 6.59H287.25zm-16.297-9.516c3.354 0 6.371-.838 9.05-2.515 2.68-1.677 4.458-3.591 5.333-5.742v-8.75H274.78c-3.864 0-6.89.957-9.078 2.87-2.187 1.915-3.281 4.166-3.281 6.755 0 2.26.738 4.056 2.215 5.386 1.476 1.331 3.582 1.996 6.316 1.996zm71.094-37.68l-5.688-.218c-2.588 0-4.748.547-6.48 1.64-1.732 1.094-3.072 2.644-4.02 4.649V95H312.57V35.828h12.14l.876 8.586c1.495-3.026 3.418-5.396 5.77-7.11 2.351-1.713 5.058-2.57 8.12-2.57.803 0 1.55.064 2.243.192.692.127 1.33.282 1.914.465l-1.586 12.414zm54.14 28.602h-31.171L358.672 95h-13.453l29.258-79.625h12.578L415.985 95h-13.508l-6.29-18.594zm-27.343-11.101h23.57l-11.539-34.016h-.328l-11.703 34.016zm106.531 2.078c0 8.604-2.023 15.55-6.07 20.836-4.047 5.286-9.68 7.93-16.899 7.93-3.354 0-6.325-.602-8.914-1.805-2.588-1.203-4.812-2.972-6.672-5.305v28.711h-13.289V35.828h11.211l1.313 7.438c1.896-2.771 4.183-4.886 6.863-6.344 2.68-1.458 5.788-2.188 9.324-2.188 7.292 0 12.97 2.89 17.035 8.668 4.065 5.779 6.098 13.39 6.098 22.832v1.149zm-13.234-1.149c0-6.052-1.14-11-3.418-14.847-2.279-3.847-5.679-5.77-10.2-5.77-2.77 0-5.122.593-7.054 1.778-1.933 1.184-3.482 2.834-4.649 4.949v26.742c1.167 2.078 2.716 3.673 4.649 4.785 1.932 1.112 4.32 1.668 7.164 1.668 4.52 0 7.902-1.668 10.144-5.004 2.243-3.336 3.364-7.72 3.364-13.152v-1.149zm76.671 1.149c0 8.604-2.023 15.55-6.07 20.836-4.047 5.286-9.68 7.93-16.898 7.93-3.354 0-6.326-.602-8.914-1.805-2.589-1.203-4.813-2.972-6.672-5.305v28.711h-13.29V35.828h11.212l1.312 7.438c1.896-2.771 4.184-4.886 6.863-6.344 2.68-1.458 5.788-2.188 9.325-2.188 7.291 0 12.97 2.89 17.035 8.668 4.065 5.779 6.097 13.39 6.097 22.832v1.149zm-13.234-1.149c0-6.052-1.14-11-3.418-14.847-2.279-3.847-5.678-5.77-10.2-5.77-2.77 0-5.121.593-7.054 1.778-1.932 1.184-3.482 2.834-4.648 4.949v26.742c1.166 2.078 2.716 3.673 4.648 4.785 1.933 1.112 4.32 1.668 7.164 1.668 4.521 0 7.903-1.668 10.145-5.004 2.242-3.336 3.363-7.72 3.363-13.152v-1.149z"/>
    </defs>
    <g fill="none" fill-rule="evenodd">
        <path fill="#005EE0" d="M380 0h175v133H380z"/>
        <mask id="b" fill="#fff">
            <use xlink:href="#a"/>
        </mask>
        <use fill="#005EE0" xlink:href="#a"/>
        <path fill="#FFF" d="M380 0h189v133H380z" mask="url(#b)"/>
    </g>
</svg>
