<svg xmlns="http://www.w3.org/2000/svg" width="61" height="64" viewBox="0 0 61 64">
    <g fill-rule="nonzero">
        <path d="M17.66 9.736c.503.863 1.462 1.185 1.722 2.037.62 2.035-.343 3.638-.924 5.398-.461 1.398-.012 2.676-1.652 4.167.398.072.797.135 1.199.187.531.07 1.02-.232 1.551-.199.697.044 1.439.41 2.135.395-.495-1.15-.535-2.712-.286-4.563.208-1.554.337-3.052 1.408-4.414.734-.934 1.236-1.785 2.368-2.617l1.788-.956.464 1.928c.482.94 1.468 1.275 1.723 2.167.578 2.03-.193 3.62-.797 5.362-.24.69-.183 1.62-.536 2.155.572-.165.745-.505 1.303-.711.366-.136 1.121-.125 1.481-.278.128-.485.733-1.091 1.059-1.73.475-.93.815-1.944 2.023-2.862 2.107-1.601 4.204-2.175 7.613-1.632l2.287-.01-.5 2.041c-.491 1.503-1.468 1.807-2.335 2.973-1.032 1.388-1.987 2.957-3.281 3.582-2.662 1.285-4.852.3-5.825.025-.37.158-.586-.055-1.051.005-.576.074-1.408.411-1.882.56.27.196.812 1.582 1.07 1.826 1.306 1.231 2.26 1.329 2.693 3.332.205.947.362 2.707.37 3.818l.01 1.533-2.01.009c-2.48-.373-3.713-1.34-5.202-2.59-.559-.468-1.79-1.149-2.205-1.738-1.156-1.646-1.007-3.351-1.061-4.63-.506.024-.5.307-1.008.303-.51-.005-1.534-.297-2.045-.332.073.11.145.223.215.34.917 1.543.79 2.9.66 4.947-.063.964.279 2.435-.016 3.503l-.41 1.48-2.263-.58c-1.271-.578-1.548-2.108-2.452-2.867-1.331-1.117-2.357-1.619-2.873-3.107-.705-2.026-.309-3.928.022-5.175-1.072-.377-1.955-.367-2.392-.541-.63-.252-.743-.604-1.56-1.4a3.567 3.567 0 0 0-.025.085v1.426c-.133.379-.64 1.158-.713 1.548v1.199l-.146.585-.718.487v1.197c-.012.098.39.5.379.61l-.379.797c-.521 6.48 3.022 12.821 7.752 17.129.473.427 1.153 1.049 1.153 1.732.003.55-.461 1.884-.51 2.38-.146 1.46-.01 1.94 0 3.526.006.804.49 1.723.51 2.758.014.708-.671 2.033-.79 2.306-.594 1.33-.812-1.896-1.188-4.471-.34-2.282-.62-3.582-.862-6.12-.997-.781-2.266-2.335-3.054-3.43-1.331-1.847-2.02-3.457-3.01-5.626-.801-1.757-1.99-3.061-2.33-5.026-.17-.988.218-1.451.17-2.464l-.037-.757v-.463l.012-.354L4 27.99c.097-1.45.735-2.654 1.068-4.054.457-1.922.71-4.01 1.588-5.769 1.517-3.05 4.343-5.894 6.927-8.127 2.583-2.245 4.936-3.855 8.2-4.905 3.119-1 4.838-.999 8.1-.77.163.01 1.914-.38 2.076-.365 1.577.135 2.455.88 3.985 1.318.129.037 1.073-.04 1.201 0 .825.244.48-.33 1.281 0 .194.085.4.158.595.256l.29.134.861 1.21 1.055.536c.34.159 1.273-.11 1.649.11.376.231.8.45 1.14.707l1.068 1.27c.351.256.679.537 1.018.805.34.269.668.024.983.329.315.293.643.586.946.89.594.635 1.2 1.258 1.735 1.953.79.962 2.042 1.884 2.678 2.957 1.14 1.922 1.49 4.103 2.113 6.256.473 1.684.764 3.404.897 5.137.049.427-.448 1.098-.436 1.538.012.427.012.768 0 1.147l.46 2.281.013.647 3.157 6.81 1.161 1.231-.205 1.123.206.403.146.305c.12.305.823.232.884.573.097.354.146.757.158 1.16.036.817-.376 1.441-.874 2.259-.485.83-1.018 1.767-1.746 2.121-.74.366-1.468-.073-2.147 0-.194.012-.364.61-.51.61.012 2.001-.703 3.619-.691 5.62l.352.64-.352.062-.012.256c-.012.171.024.61.012.696-.014.108.002.801-.012.914-.025.192-.423.497-.461.659-.06.256.085.903 0 1.147-.328.988-.037.756-.728 1.513-1.37 1.537-2.933 2.071-5.02 2.047-.157 0-.766.393-.887.369-5.277-.89-10.187-2.06-15.451-3l-4.296-.466h-.344l-.333-.902h-.827l-.753.439c-.958-.305-1.795-1.341-2.523-1.988-1.443-1.27-2.377-1.23-2.462-3.159-.024-.549 0-2.15 0-2.504l.403-1.514v-2.519c.085-3.417-.018-6.79.41-7.254.285-.31.7-.07 1.245.72.177.677.439 1.439.404 2.358-.05 1.334-.455 2.998-.404 5.195l.722 2.233-.318.781.354.683c.012.11.012.22.025.318.109.854 1.623 2.71 2.29 3.234.328.269-.11.598.267.696l.861.732h.983l.9.084 3.66-.084c2.62.397 6.177 1.805 8.729 1.988 2.552.183 4.34 1.087 6.858 1.513l1.223-.975c.789-.025 1.54-.39 2.087-.977.29-.305.679.022.812-.368.037-.098-.121-.913-.085-1.01.025-.098.522-.014.546-.087.012-.11.428-.792.44-.95l-.9-.098c.023-2.794.448-5.268.46-8.062.012-1.074.461-2.25 1.504-2.237l1.822.526c.254 0 1.004-.55 1.174-.6a1.04 1.04 0 0 0 .352-.17c.06-.049.11.33.133.256.025-.073.524-.708.488-.891-.012-.074-.524-.097-.548-.158-.024-.122.073-.44.06-.488h-.242l-.243-.672.085-1.116-4.145-7.84c-.133-.268.484-.838.484-2.832l-1.082-2.281c0-1.16.304-2.575.158-3.673-.242-2.172-1.099-3.917-1.972-5.918-.752-1.453-.696-2.926-1.727-4.183-1.031-1.257-2.873-3.054-4.122-4.079l-1.689-1.134c-.327-.244-1.247-.367-1.587-.587-.34-.232-.004-.415-.344-.61-.34-.183.693-.23-1.402-1.11h-1.444c-.364-.159-.503-.59-.88-.724-.751-.28-1.902-.37-2.678-.578-1.54-.403-2.15-.967-3.727-1.016l-.582-.012h-.534c-.024 0-.309.211-.854.634-1.431 0-1.807-.72-2.195-.634h-2.305c-2.76.495-4.958 1.321-7.202 2.807zm-6.536 7.41a57.173 57.173 0 0 0-1.155 1.898c.175.335-.033.39.545.632.172.072.502-.151.837-.004-.123-.43.066-1.023.007-1.518-.041-.348-.158-.669-.234-1.008zm24.57-.585c-.112.084-.317-.623-.445-.522-.685.538-2.415 2.973-2.76 3.667-.252.508.112 1.228-.006 1.554.896.114 3.05-.038 4.337-.668 1.339-.655 3.418-3.714 4.676-5.1-.897-.034-3.01.518-3.707.535-.788.02-1.462.058-2.095.534zm-21.268 4.577c.701-.568 2.187.362 2.205-3.702 0-.279.75-.768.855-1.215.352-1.505.067-3.482-.467-4.864-1.371 1.33-3.594 3.405-3.778 4.882-.177 1.43.783 4.084 1.185 4.9zm4.087 11.11c.13-.865.699-3.745.608-4.81-.109-1.285-.927-.739-1.346-1.444-.723-1.218-1.957-2.558-2.762-2.956-.213.88-1.458 3.075-.982 4.422.498 1.408 2.849 3.79 4.482 4.789zm6.28-10.675c.71-.557 2.344-2.635 2.804-3.986.281-.825.512-1.946.013-3.025-.358-.774-1.388-1.484-1.666-2.238-1.401 1.318-2.702 3.363-2.901 4.848-.19 1.414 1.364 3.586 1.75 4.401zm1.158 7.2c.863 1.212 3.315 2.33 5.156 2.842-.244-1.904-.617-3.65-1.696-4.68-.686-.654-1.201-2.3-2.273-2.955-.537-.328-1.82.064-2.118.01.02.53-.074 2.014-.013 2.965.044.677.6 1.332.944 1.817z" opacity=".07"/>
        <path d="M13.66 5.736c.503.863 1.462 1.185 1.722 2.037.62 2.035-.343 3.638-.924 5.398-.461 1.398-.012 2.676-1.652 4.167.398.072.797.135 1.199.187.531.07 1.02-.232 1.551-.199.697.044 1.439.41 2.135.395-.495-1.15-.535-2.712-.286-4.563.208-1.554.337-3.052 1.408-4.414.734-.934 1.236-1.785 2.368-2.617l1.788-.956.464 1.928c.482.94 1.468 1.275 1.723 2.167.578 2.03-.193 3.62-.797 5.362-.24.69-.183 1.62-.536 2.155.572-.165.745-.505 1.303-.711.366-.136 1.121-.125 1.481-.278.128-.485.733-1.091 1.059-1.73.475-.93.815-1.944 2.023-2.862 2.107-1.601 4.204-2.175 7.613-1.632l2.287-.01-.5 2.041c-.491 1.503-1.468 1.807-2.335 2.973-1.032 1.388-1.987 2.957-3.281 3.582-2.662 1.285-4.852.3-5.825.025-.37.158-.586-.055-1.051.005-.576.074-1.408.411-1.882.56.27.196.812 1.582 1.07 1.826 1.306 1.231 2.26 1.329 2.693 3.332.205.947.362 2.707.37 3.818l.01 1.533-2.01.009c-2.48-.373-3.713-1.34-5.202-2.59-.559-.468-1.79-1.149-2.205-1.738-1.156-1.646-1.007-3.351-1.061-4.63-.506.024-.5.307-1.008.303-.51-.005-1.534-.297-2.045-.332.073.11.145.223.215.34.917 1.543.79 2.9.66 4.947-.063.964.279 2.435-.016 3.503l-.41 1.48-2.263-.58c-1.271-.578-1.548-2.108-2.452-2.867-1.331-1.117-2.357-1.619-2.873-3.107-.705-2.026-.309-3.928.022-5.175-1.072-.377-1.955-.367-2.392-.541-.63-.252-.743-.604-1.56-1.4a3.567 3.567 0 0 0-.025.085v1.426c-.133.379-.64 1.158-.713 1.548v1.199l-.146.585-.718.487v1.197c-.012.098.39.5.379.61l-.379.797c-.521 6.48 3.022 12.821 7.752 17.129.473.427 1.153 1.049 1.153 1.732.003.55-.461 1.884-.51 2.38-.146 1.46-.01 1.94 0 3.526.006.804.49 1.723.51 2.758.014.708-.671 2.033-.79 2.306-.594 1.33-.812-1.896-1.188-4.471-.34-2.282-.62-3.582-.862-6.12-.997-.781-2.266-2.335-3.054-3.43-1.331-1.847-2.02-3.457-3.01-5.626-.801-1.757-1.99-3.061-2.33-5.026-.17-.988.218-1.451.17-2.464l-.037-.757v-.463l.012-.354L0 23.99c.097-1.45.735-2.654 1.068-4.054.457-1.922.71-4.01 1.588-5.769C4.173 11.117 7 8.273 9.583 6.04c2.583-2.245 4.936-3.855 8.2-4.905 3.119-1 4.838-.999 8.1-.77.163.01 1.914-.38 2.076-.365 1.577.135 2.455.88 3.985 1.318.129.037 1.073-.04 1.201 0 .825.244.48-.33 1.281 0 .194.085.4.158.595.256l.29.134.861 1.21 1.055.536c.34.159 1.273-.11 1.649.11.376.231.8.45 1.14.707l1.068 1.27c.351.256.679.537 1.018.805.34.269.668.024.983.329.315.293.643.586.946.89.594.635 1.2 1.258 1.735 1.953.79.962 2.042 1.884 2.678 2.957 1.14 1.922 1.49 4.103 2.113 6.256.473 1.684.764 3.404.897 5.137.049.427-.448 1.098-.436 1.538.012.427.012.768 0 1.147l.46 2.281.013.647 3.157 6.81 1.161 1.231-.205 1.123.206.403.146.305c.12.305.823.232.884.573.097.354.146.757.158 1.16.036.817-.376 1.441-.874 2.259-.485.83-1.018 1.767-1.746 2.121-.74.366-1.468-.073-2.147 0-.194.012-.364.61-.51.61.012 2.001-.703 3.619-.691 5.62l.352.64-.352.062-.012.256c-.012.171.024.61.012.696-.014.108.002.801-.012.914-.025.192-.423.497-.461.659-.06.256.085.903 0 1.147-.328.988-.037.756-.728 1.513-1.37 1.537-2.933 2.071-5.02 2.047-.157 0-.766.393-.887.369-5.277-.89-10.187-2.06-15.451-3l-4.296-.466h-.344l-.333-.902h-.827l-.753.439c-.958-.305-1.795-1.341-2.523-1.988-1.443-1.27-2.377-1.23-2.462-3.159-.024-.549 0-2.15 0-2.504l.403-1.514v-2.519c.085-3.417-.018-6.79.41-7.254.285-.31.7-.07 1.245.72.177.677.439 1.439.404 2.358-.05 1.334-.455 2.998-.404 5.195l.722 2.233-.318.781.354.683c.012.11.012.22.025.318.109.854 1.623 2.71 2.29 3.234.328.269-.11.598.267.696l.861.732h.983l.9.084 3.66-.084c2.62.397 6.177 1.805 8.729 1.988 2.552.183 4.34 1.087 6.858 1.513l1.223-.975c.789-.025 1.54-.39 2.087-.977.29-.305.679.022.812-.368.037-.098-.121-.913-.085-1.01.025-.098.522-.014.546-.087.012-.11.428-.792.44-.95l-.9-.098c.023-2.794.448-5.268.46-8.062.012-1.074.461-2.25 1.504-2.237l1.822.526c.254 0 1.004-.55 1.174-.6a1.04 1.04 0 0 0 .352-.17c.06-.049.11.33.133.256.025-.073.524-.708.488-.891-.012-.074-.524-.097-.548-.158-.024-.122.073-.44.06-.488h-.242l-.243-.672.085-1.116-4.145-7.84c-.133-.268.484-.838.484-2.832l-1.082-2.281c0-1.16.304-2.575.158-3.673-.242-2.172-1.099-3.917-1.972-5.918-.752-1.453-.696-2.926-1.727-4.183-1.031-1.257-2.873-3.054-4.122-4.079l-1.689-1.134c-.327-.244-1.247-.367-1.587-.587-.34-.232-.004-.415-.344-.61-.34-.183.693-.23-1.402-1.11h-1.444c-.364-.159-.503-.59-.88-.724-.751-.28-1.902-.37-2.678-.578-1.54-.403-2.15-.967-3.727-1.016l-.582-.012h-.534c-.024 0-.309.211-.854.634-1.431 0-1.807-.72-2.195-.634h-2.305c-2.76.495-4.958 1.321-7.202 2.807zm-6.536 7.41a57.173 57.173 0 0 0-1.155 1.898c.175.335-.033.39.545.632.172.072.502-.151.837-.004-.123-.43.066-1.023.007-1.518-.041-.348-.158-.669-.234-1.008zm24.57-.585c-.112.084-.317-.623-.445-.522-.685.538-2.415 2.973-2.76 3.667-.252.508.112 1.228-.006 1.554.896.114 3.05-.038 4.337-.668 1.339-.655 3.418-3.714 4.676-5.1-.897-.034-3.01.518-3.707.535-.788.02-1.462.058-2.095.534zm-21.268 4.577c.701-.568 2.187.362 2.205-3.702 0-.279.75-.768.855-1.215.352-1.505.067-3.482-.467-4.864-1.371 1.33-3.594 3.405-3.778 4.882-.177 1.43.783 4.084 1.185 4.9zm4.087 11.11c.13-.865.699-3.745.608-4.81-.109-1.285-.927-.739-1.346-1.444-.723-1.218-1.957-2.558-2.762-2.956-.213.88-1.458 3.075-.982 4.422.498 1.408 2.849 3.79 4.482 4.789zm6.28-10.675c.71-.557 2.344-2.635 2.804-3.986.281-.825.512-1.946.013-3.025-.358-.774-1.388-1.484-1.666-2.238-1.401 1.318-2.702 3.363-2.901 4.848-.19 1.414 1.364 3.586 1.75 4.401zm1.158 7.2c.863 1.212 3.315 2.33 5.156 2.842-.244-1.904-.617-3.65-1.696-4.68-.686-.654-1.201-2.3-2.273-2.955-.537-.328-1.82.064-2.118.01.02.53-.074 2.014-.013 2.965.044.677.6 1.332.944 1.817z"/>
    </g>
</svg>
