<svg xmlns="http://www.w3.org/2000/svg" width="17" height="20" viewBox="0 0 17 20">
    <g fill="#005EE0" fill-rule="nonzero">
        <path d="M.304 18.983c.745.459 1.652.66 2.577.713 2.222.129 4.44.325 6.674.178.276.018.552.036.828.049 1.753.076 3.506.098 5.25-.085.496-.053.908-.258.873-.659-.035-.37-.386-.64-.894-.68-.916-.081-1.837-.166-2.757-.157-1.477.018-2.95.107-4.426.165-2.643-.512-5.347-.218-8.024-.325-.119-.005-.307.151-.364.258-.118.218.035.405.263.543zM12.029 9.864c.324-.258.71-.356.968-.049.237.281.22.682-.048 1.016-.482.596-.96 1.202-1.503 1.74-.872.865-1.797 1.675-2.7 2.512-.026.045-.052.085-.079.13a.452.452 0 0 1-.63.142l-.211-.138C5.99 14.01 4.64 12.242 3.04 10.764c-.074-.067-.074-.29-.03-.4.083-.223.298-.264.53-.228.754.12 1.185.357 1.839.592.828.297 1.062.521 2.232.271a21.727 21.727 0 0 1-.087-1.923c.017-1.434.105-.868.162-2.302-.504-2.569-.215-3.382-.32-5.983-.004-.115.149-.298.254-.356.215-.111.394.036.53.254.452.726.649 1.607.702 2.502.127 2.16.32 2.501.175 4.67.017.267.035.539.048.806.057 1.353.083.711 0 2.06 1.198-.59 1.876-.008 2.954-.863z"/>
    </g>
</svg>
