<svg xmlns="http://www.w3.org/2000/svg" width="26" height="20" viewBox="0 0 26 20">
    <g fill-rule="nonzero">
        <path d="M21.093 6.283c-.116-.694-.696-1.413-1.173-2.15-.656-1.014-1.307-2.021-2.03-2.682C16.503.18 15.563.02 13.685.02c-1.45 0-2.683.646-3.894 1.43-1.008.65-2.026 1.301-2.618 2.336a4.304 4.304 0 0 0-.789-.075c-.855 0-1.62.51-2.278.958-1.088.74-1.834 1.742-1.834 3.154 0 .293.032.576.085.853-.961.7-1.33 1.815-1.708 2.922C.451 12.181 0 12.661 0 13.291c0 .403-.08.787 0 1.178.213 1.044.823 2.044 1.552 2.87.436.492.874.585 1.41.897.73.425 1.594.987 2.43 1.033.016 0 1.11-.248 1.781-.248.572 0 1.521.083 2.848.248.4 0 .325-.325.325-.725 0-.4.075-.715-.325-.715-1.117-.124-2.026-.187-2.725-.187-.315 0-.929.063-1.84.187-.588-.036-1.133-.407-1.744-.677-.732-.323-1.507-.592-1.893-1.186-.488-.75-.267-1.722-.267-2.675 0-1.51.104-2.883 1.41-3.646.304-.176 1.261-.637 1.144-.968-.107-.288-.394-.538-.394-.864 0-.678.382-1.183.801-1.763.49-.678 1.078-1.38 1.871-1.38.315 0 .624.525.912.631a.723.723 0 0 0 .901-.368c.283-.6.67-.922 1.117-1.407.496-.539 1.069-1.222 1.708-1.537.819-.402 1.726-.538 2.669-.538 1.177 0 2.23.196 3.01.802.481.373.764 1.01 1.19 1.534.727.897 1.724 1.912 1.842 3.146.032.326 1.04.827 1.36.88 1.11.19 1.17.804 1.903 1.625.832.933 1.5 1.903 1.5 3.234 0 .652.025 1.59-.299 2.14-.38.65-1.153.893-1.667 1.407-.825.824-1.496 1.513-2.69 1.605-.973.275-1.703.412-2.19.412-.387 0-.967-.137-1.74-.412-.4 0-.72.32-.72.72 0 .4.32.72.72.72h3.957c1.05-.072 1.811-.92 2.663-1.435.538-.325 1.23-.194 1.667-.677.552-.607 1.078-1.11 1.372-1.851.305-.772.367-1.786.367-2.629-.002-.93-.68-1.753-1.005-2.607-.425-1.119-.605-2.215-1.527-2.905-.64-.48-1.52-.67-2.31-.877z"/>
        <path d="M10.086 11.61c.474-.37.956-.737 1.373-1.167.349-.357.68-.727 1.008-1.106-.06.602-.117 1.21-.108 1.812.017 1.175.103 2.35.16 3.53-.496 2.109-.212 1.865-.315 3.996-.004.094.146.245.25.292.21.095.387-.03.52-.206.444-.594.638-.117.69-.853.124-1.77.313-2.338.171-4.12.018-.22.035-.44.048-.659.056-1.098.082-2.19.004-3.284.71.753 1.498 1.437 2.182 2.208.052.056.246.039.345-.009.202-.094.258-.292.25-.49-.03-.659-.31-1.214-.698-1.675-.753-.895-1.476-1.82-2.32-2.634l-.022-.022a.802.802 0 0 0-1.132.022c-.193.202-.383.413-.563.633-.138.116-.28.228-.414.348-.856.758-1.683 1.55-2.358 2.48-.194.262-.241.594.051.852.267.232.611.258.878.052z"/>
    </g>
</svg>